<?xml version="1.0" encoding="utf-8"?>
<!-- Generator: Adobe Illustrator 25.0.0, SVG Export Plug-In . SVG Version: 6.00 Build 0)  -->
<svg version="1.1" id="Layer_1" xmlns="http://www.w3.org/2000/svg" xmlns:xlink="http://www.w3.org/1999/xlink" x="0px" y="0px"
	 viewBox="0 0 1080 1080" style="enable-background:new 0 0 1080 1080;" xml:space="preserve">
<style type="text/css">
	.st0{stroke:#000000;stroke-width:0.25;stroke-miterlimit:10;}
	.st1{fill:#FF00AC;stroke:#000000;stroke-width:0.25;stroke-miterlimit:10;}
	.st2{stroke:#FFFFFF;stroke-width:4;stroke-miterlimit:10;}
</style>
<g id="cherry">
	<g id="cherry-2">
		<path class="st0" d="M733.5,546c-10.6-116.9-84.3-141.2-84.3-141.2c-7.8,18-17,35.4-27.6,51.9c-14.6,21.7-42.1,5.4-42.1,5.4
			l-56.9-60.8c-11.5-13.9,13.3-29.5,13.3-29.5l28-18c-43.4-29.1-123.4-59.5-199.4-34.1S247.5,415.5,228.8,450
			s-50.4,134.9-36.3,199.4c13.1,56.1,43.5,106.7,86.9,144.7c43.1,33.9,95.9,53.1,150.8,54.7c78.7,2.4,155.2-26.3,212.9-79.9
			C701.5,707.6,743.7,662.5,733.5,546z M407.6,430.2c-6.1,5.6-40,28.2-65.2,106c0,0-4.8,21.7-21.7,0c0,0-24.5-24.3-10.4-77.8
			c8.4-35.5,32.3-65.4,65.2-81.5c7.4-2.8,11.5-2.6,16.1,1.3c7.6,9.3,13,20.3,15.9,31.9c1.5,5.2,6.5,14.1,0,20L407.6,430.2z"/>
		<path class="st0" d="M571.6,381.8c0,0,147.3-115.6,315-72.1c4.3-10,9.6-19.5,15.9-28.5c5-6.7,12.4-11.2,20.6-12.6
			c7.4-1.1,14.8,0,15.9,6.5c-0.1,5-1.7,9.9-4.8,13.9c0,0-20,18.7-30.2,85.4c-3.9,25.2-7.8,28.7-18.7,25.2c-6.7-2-10.6-26.7-6.7-58.7
			c-103.3-27.7-213.4,5.4-284.4,85.4c-6,4.8-14.5,4.8-20.4,0c-12.6-5.9-18-20.9-12.2-33.5C563.7,388.3,567.2,384.4,571.6,381.8z"/>
		<path class="st1" d="M733.5,546c-10.6-116.9-84.3-141.2-84.3-141.2c-8,18-17.4,35.4-28,51.9c-14.6,21.7-42.1,5.4-42.1,5.4
			l-56.9-60.8c-11.7-13.9,13.3-29.5,13.3-29.5l28.5-18c-43.4-29.1-123.8-59.5-199.8-34.1S247.1,415.5,228.4,450
			S178,584.9,192.1,649.4c13.1,56.1,43.5,106.7,86.9,144.7c43.1,33.9,95.9,53.1,150.8,54.7c78.7,2.4,155.2-26.3,212.9-79.9
			C701.5,707.6,743,662.5,733.5,546z M407.6,430.2c-6.1,5.6-40,28.2-65.2,106c0,0-4.8,21.7-21.7,0c0,0-24.5-24.3-10.4-77.8
			c8.4-35.5,32.3-65.4,65.2-81.5c7.4-2.8,11.5-2.6,16.1,1.3c7.6,9.3,13,20.3,15.9,31.9c0,5.2,5.4,14.1,0,20L407.6,430.2z"/>
		<path class="st2" d="M571.2,381.8c0,0,147.3-115.6,314.8-72.1c4.5-10,9.8-19.5,16.1-28.5c5.3-6.9,13.1-11.4,21.7-12.6
			c7.2-1.1,14.8,0,15.9,6.5c-0.2,5-1.8,9.9-4.8,13.9c0,0-20,18.7-30.4,85.4c-3.7,25.2-7.8,28.7-18.7,25.2c-6.5-2-10.4-26.7-6.5-58.7
			c-103.4-27.8-213.6,5.3-284.6,85.4c-5.9,4.8-14.3,4.8-20.2,0c-12.6-5.9-18-20.9-12.2-33.5C564.1,388.4,567.2,384.5,571.2,381.8z"
			/>
	</g>
</g>
</svg>
