<svg xmlns="http://www.w3.org/2000/svg" viewBox="0 0 34.8 26.98"><g id="cherry"><g id="cherry-2" data-name="cherry"><path d="M25.81,17.42c-.49-5.38-3.88-6.5-3.88-6.5a16.56,16.56,0,0,1-1.27,2.39c-.67,1-1.94.25-1.94.25l-2.62-2.8c-.53-.64.61-1.36.61-1.36L18,8.57C16,7.23,12.32,5.83,8.82,7s-5.38,4.41-6.24,6S.26,19.21.91,22.18a12.7,12.7,0,0,0,4,6.66,11.81,11.81,0,0,0,6.94,2.52,13.77,13.77,0,0,0,9.8-3.68C24.34,24.86,26.28,22.78,25.81,17.42Zm-15-5.33c-.28.26-1.84,1.3-3,4.88,0,0-.22,1-1,0,0,0-1.13-1.12-.48-3.58a5.61,5.61,0,0,1,3-3.75c.34-.13.53-.12.74.06a3.76,3.76,0,0,1,.73,1.47c.07.24.3.65,0,.92Z" transform="translate(-0.6 -4.51)" style="stroke:#000;stroke-miterlimit:10;stroke-width:0.25px"/><path d="M18.36,9.86s6.78-5.32,14.5-3.32a7.3,7.3,0,0,1,.73-1.31,1.51,1.51,0,0,1,.95-.58c.34-.05.68,0,.73.3a1.08,1.08,0,0,1-.22.64s-.92.86-1.39,3.93c-.18,1.16-.36,1.32-.86,1.16-.31-.09-.49-1.23-.31-2.7A13,13,0,0,0,19.4,11.91a.75.75,0,0,1-.94,0,1.16,1.16,0,0,1-.56-1.54A1.14,1.14,0,0,1,18.36,9.86Z" transform="translate(-0.6 -4.51)" style="stroke:#000;stroke-miterlimit:10;stroke-width:0.25px"/><path d="M25.81,17.42c-.49-5.38-3.88-6.5-3.88-6.5a17.73,17.73,0,0,1-1.29,2.39c-.67,1-1.94.25-1.94.25l-2.62-2.8c-.54-.64.61-1.36.61-1.36L18,8.57C16,7.23,12.3,5.83,8.8,7s-5.38,4.41-6.24,6S.24,19.21.89,22.18a12.7,12.7,0,0,0,4,6.66,11.81,11.81,0,0,0,6.94,2.52,13.79,13.79,0,0,0,9.8-3.68C24.34,24.86,26.25,22.78,25.81,17.42Zm-15-5.33c-.28.26-1.84,1.3-3,4.88,0,0-.22,1-1,0,0,0-1.13-1.12-.48-3.58a5.61,5.61,0,0,1,3-3.75c.34-.13.53-.12.74.06a3.76,3.76,0,0,1,.73,1.47c0,.24.25.65,0,.92Z" transform="translate(-0.6 -4.51)" style="fill:#ff00ac;stroke:#000;stroke-miterlimit:10;stroke-width:0.25px"/><path d="M18.34,9.86s6.78-5.32,14.49-3.32a8,8,0,0,1,.74-1.31,1.51,1.51,0,0,1,1-.58c.33-.05.68,0,.73.3a1.15,1.15,0,0,1-.22.64s-.92.86-1.4,3.93c-.17,1.16-.36,1.32-.86,1.16-.3-.09-.48-1.23-.3-2.7a13,13,0,0,0-13.1,3.93.74.74,0,0,1-.93,0,1.16,1.16,0,0,1-.56-1.54A1.14,1.14,0,0,1,18.34,9.86Z" transform="translate(-0.6 -4.51)" style="fill:#fff;stroke:#000;stroke-miterlimit:10;stroke-width:0.25px"/></g></g></svg>