<svg xmlns="http://www.w3.org/2000/svg" viewBox="0 0 750.16 723.39"><defs><style>.cls-1{fill:none;stroke:#000;stroke-miterlimit:10;}</style></defs><g id="Layer_2" data-name="Layer 2"><g id="triangles"><path id="tri16" class="cls-1" d="M203.8,332.49,375.08,1.09l373.05,721.8H2Z"/><path id="tri15" class="cls-1" d="M197,328.89,375.08,1.09l373.05,686.7H2Z"/><path id="tri14" class="cls-1" d="M189.73,324.84,375.08,1.09,748.13,652.7H2Z"/><path id="tri13" class="cls-1" d="M182,320.26,375.08,1.09,748.13,617.6H2Z"/><path id="tri12" class="cls-1" d="M173.63,315.07l201.45-314L748.13,582.51H2Z"/><path id="tri11" class="cls-1" d="M164.71,309.17,375.08,1.09,748.13,547.41H2Z"/><path id="tri10" class="cls-1" d="M155.18,302.44,375.08,1.09,748.13,512.31H2Z"/><path id="tri9" class="cls-1" d="M145,294.74,375.08,1.09,748.13,477.22H2Z"/><path id="tri8" class="cls-1" d="M134.16,285.91,375.08,1.09l373.05,441H2Z"/><path id="tri7" class="cls-1" d="M122.66,275.77,375.08,1.09,748.13,407H2Z"/><path id="tri6" class="cls-1" d="M110.51,264.09l264.57-263L748.13,371.93H2Z"/><path id="tri5" class="cls-1" d="M97.8,250.65,375.08,1.09,748.13,336.84H2Z"/><path id="tri4" class="cls-1" d="M84.62,235.18,375.08,1.09,748.13,301.74H2Z"/><path id="tri3" class="cls-1" d="M679,217.43,375.08,1.09,2,266.64h746.1Z"/><path id="tri2" class="cls-1" d="M57.71,197.15,375.08,1.09,748.13,231.55H2Z"/><path id="tri1" class="cls-1" d="M44.61,174.16,375.08,1.09,748.13,196.45H2Z"/></g></g></svg>