<svg id="Layer_1" data-name="Layer 1" xmlns="http://www.w3.org/2000/svg" viewBox="0 0 414 896"><path d="M376.89.1c11.49,0,23,.07,34.48-.07,2.15,0,2.95.41,2.52,2.57a10.26,10.26,0,0,0,0,2q0,443.4.09,886.8c0,3.74-.84,4.59-4.59,4.59q-174.15-.16-348.3-.09a19.65,19.65,0,0,0,0-4c-2.77-13.14-3.17-26.58-4.8-39.85-1.67-13.52-2.36-27.18-3.1-40.79-.86-16-1.05-32-1.88-48-.49-9.53.07-19.16.53-28.77.78-16.33.68-32.7,2.26-49,.87-9,1-18.06,2.14-27,1.67-13.56,3.78-27.08,5.92-40.58,2.24-14.11,4.19-28.31,7.29-42.24C72.18,563,75,550.36,77.85,537.76c6.06-26.31,13.22-52.28,20.91-78.13a169.84,169.84,0,0,0,7.33-43.69c.15-5.42.61-10.87,1.12-16.25,1.53-16,2.54-32.06,3.88-48.08.65-7.85,1.43-15.69,2.1-23.53.91-10.73,2.61-21.38,3.82-32.08,1.13-9.92,1.79-19.9,3.13-29.78,1.72-12.73,4.23-25.36,5.81-38.1,2.15-17.45,5.19-34.76,8.28-52,3.68-20.54,8-41,13-61.26q10.35-41.55,23.51-82.38C174.12,22,178.44,11.55,177,.1h47A14.2,14.2,0,0,1,223.53,3c-8.41,22.51-17.23,44.88-25.18,67.55s-15.3,45.59-21.93,68.71c-6.72,23.45-13.08,47-18.59,70.75-6.51,28.13-12.05,56.4-17,84.83-3.87,22.32-6.51,44.79-9.72,67.18-2.09,14.55-3.67,29.19-5,43.83-1.61,17.51-3,35-4,52.59q-1,17.52-1.94,35c-.85,15.66-1.55,31.36-2,47-.67,25.32-.39,50.67-.12,76,.24,22.25-.88,44.5.82,66.76,1.16,15.2-.47,30.48,1,45.76,1.23,13.18-.28,26.48,1,39.76,1.22,12.68-.26,25.47,1,38.26s.07,25.81,1,38.76c1,14.86,0,29.84,1.14,44.75.2,2.46.55,3.45,3.3,3.42,12.15-.15,24.31-.09,36.47,0,2,0,3-.06,3.43-2.74,1.17-8.25,2-16.53,3-24.8,1.68-14.91,4-29.74,5.86-44.62,1.46-11.5,2.57-23,4.09-34.55,1.83-13.88,4-27.72,5.91-41.6,1.75-12.59,3.2-25.23,5.12-37.8,2.09-13.64,5-27.17,6.77-40.85s4.47-27.31,6.34-41c2.22-16.22,5.82-32.25,8.74-48.37,3.74-20.59,7.18-41.25,11.17-61.79,2.93-15.09,6.87-30,9.75-45.08,5.57-29.26,12.57-58.21,19.46-87.16,6.25-26.23,13.32-52.26,20.4-78.29,10-36.76,20.63-73.33,32.27-109.58,10.51-32.72,21.31-65.36,33.4-97.54q10.88-29,21.94-57.92C366.45,26.81,371.7,13.47,376.89.1Zm33.82,429.48c-4.65,11.32-8.89,21.94-13.37,32.45C386,488.6,376,515.67,366.5,543q-18.08,52.15-32.85,105.36c-8.23,29.75-16,59.58-22.88,89.68q-8,35.29-15,70.78c-5.38,27.36-10.48,54.77-16.08,82.08-.95,4.64.67,4.06,3.52,4.06q62.7,0,125.4.07c3.52,0,4.35-.9,4.35-4.39q-.13-227.39-.06-454.77A8.26,8.26,0,0,0,410.71,429.58Z" style="fill:#19a05c"/><path d="M376.89.1c-5.19,13.37-10.44,26.71-15.55,40.11Q350.29,69.15,339.4,98.13C327.31,130.31,316.51,163,306,195.67c-11.64,36.25-22.26,72.82-32.27,109.58-7.08,26-14.15,52.06-20.4,78.29-6.89,28.95-13.89,57.9-19.46,87.16-2.88,15.1-6.82,30-9.75,45.08-4,20.54-7.43,41.2-11.17,61.79-2.92,16.12-6.52,32.15-8.74,48.37-1.87,13.71-4.58,27.28-6.34,41s-4.68,27.21-6.77,40.85c-1.92,12.57-3.37,25.21-5.12,37.8-1.92,13.88-4.08,27.72-5.91,41.6-1.52,11.5-2.63,23-4.09,34.55-1.9,14.88-4.18,29.71-5.86,44.62-.94,8.27-1.8,16.55-3,24.8-.39,2.68-1.44,2.75-3.43,2.74-12.16,0-24.32-.11-36.47,0-2.75,0-3.1-1-3.3-3.42-1.18-14.91-.11-29.89-1.14-44.75-.89-12.95.28-25.92-1-38.76s.25-25.58-1-38.26c-1.29-13.28.22-26.58-1-39.76-1.42-15.28.21-30.56-1-45.76-1.7-22.26-.58-44.51-.82-66.76-.27-25.34-.55-50.69.12-76,.41-15.67,1.11-31.37,2-47q.94-17.52,1.94-35c1-17.55,2.37-35.08,4-52.59,1.35-14.64,2.93-29.28,5-43.83,3.21-22.39,5.85-44.86,9.72-67.18,4.94-28.43,10.48-56.7,17-84.83,5.51-23.78,11.87-47.3,18.59-70.75q9.95-34.68,21.93-68.71c8-22.67,16.77-45,25.18-67.55A14.2,14.2,0,0,0,224,.1Z" style="fill:#e35fa0"/><path d="M177,.1c1.44,11.45-2.88,21.91-6.24,32.35q-13.12,40.81-23.51,82.38c-5.05,20.25-9.34,40.72-13,61.26-3.09,17.27-6.13,34.58-8.28,52-1.58,12.74-4.09,25.37-5.81,38.1-1.34,9.88-2,19.86-3.13,29.78-1.21,10.7-2.91,21.35-3.82,32.08-.67,7.84-1.45,15.68-2.1,23.53-1.34,16-2.35,32.07-3.88,48.08-.51,5.38-1,10.83-1.12,16.25a169.84,169.84,0,0,1-7.33,43.69c-7.69,25.85-14.85,51.82-20.91,78.13C75,550.36,72.18,563,69.39,575.62c-3.1,13.93-5,28.13-7.29,42.24-2.14,13.5-4.25,27-5.92,40.58-1.11,9-1.27,18-2.14,27-1.58,16.31-1.48,32.68-2.26,49-.46,9.61-1,19.24-.53,28.77.83,16,1,32,1.88,48,.74,13.61,1.43,27.27,3.1,40.79,1.63,13.27,2,26.71,4.8,39.85a19.65,19.65,0,0,1,0,4c-19,0-38-.11-57,.1C.68,896,0,895.32,0,891.9Q.18,683.94.11,476q9.36-22.69,18.75-45.38C32.09,398.73,45.6,367,58.55,335,73.36,298.34,87.82,261.56,99,223.61a567.13,567.13,0,0,0,15.23-63.13c3.15-18.2,5.51-36.42,7-54.82.52-6.45,0-12.92.93-19.26,1.81-12.92,1.07-25.88.65-38.75C122.3,31.77,120.36,15.94,119,.1Z" style="fill:#e35fa0"/><path d="M119,.1c1.32,15.84,3.26,31.67,3.78,47.55.42,12.87,1.16,25.83-.65,38.75-.9,6.34-.41,12.81-.93,19.26-1.51,18.4-3.87,36.62-7,54.82A567.13,567.13,0,0,1,99,223.61C87.82,261.56,73.36,298.34,58.55,335c-12.95,32-26.46,63.76-39.69,95.64Q9.44,453.28.11,476V299c4.08-8.16,7.3-16.69,10.6-25.18C23.06,242.12,34,210,41.79,176.75a456.93,456.93,0,0,0,10.13-61,457,457,0,0,0,2.26-49c-.11-9.11-.58-18.17-1.13-27.24-.56-9.34-.79-18.76-2.25-28-.61-3.81.52-8-1.72-11.5Z" style="fill:#19a05c"/><path d="M49.08.1c2.24,3.54,1.11,7.69,1.72,11.5,1.46,9.21,1.69,18.63,2.25,28,.55,9.07,1,18.13,1.13,27.24a457,457,0,0,1-2.26,49,456.93,456.93,0,0,1-10.13,61C34,210,23.06,242.12,10.71,273.85c-3.3,8.49-6.52,17-10.6,25.18Q.11,151.78,0,4.52C0,.61,1.05,0,4.67,0,19.47.23,34.27.1,49.08.1Z" style="fill:#e35fa0"/><path d="M410.71,429.58a8.26,8.26,0,0,1,2.18,6.24q0,227.38.06,454.77c0,3.49-.83,4.4-4.35,4.39q-62.7-.19-125.4-.07c-2.85,0-4.47.58-3.52-4.06,5.6-27.31,10.7-54.72,16.08-82.08q7-35.5,15-70.78c6.85-30.1,14.65-59.93,22.88-89.68Q348.37,595.08,366.5,543C376,515.67,386,488.6,397.34,462,401.82,451.52,406.06,440.9,410.71,429.58Z" style="fill:#e35fa0"/></svg>