<svg id="Layer_1" data-name="Layer 1" xmlns="http://www.w3.org/2000/svg" viewBox="0 0 100 90"><g id="Layer_2" data-name="Layer 2"><g id="Layer_1-2" data-name="Layer 1-2"><path d="M85.36,55.58a.1.1,0,0,1-.09.07h-9.1l1.47-9.5h10.6ZM29.42,46.15H41.63l1.47,9.5H32.2Zm8.22-25.74,1.41,9.12H24.56l-2.67-9.12Zm58.42,0a.08.08,0,0,1,0,.09l-2.75,9H80.22l1.41-9.12H96.08Zm-16.45,13H92.12l-2.68,8.78H78.25Zm-18,8.78V33.45h14l-1.36,8.78Zm0-21.82H77.67l-1.42,9.12H61.6Zm-3.93,9.12H43l-1.4-9.08H57.67Zm-14,3.92h14v8.78H45Zm-17.93,0h14L41,42.23H28.27Zm21.37,22.2-1.47-9.5h12v9.5Zm14.53,0v-9.5h12l-1.47,9.5Zm35-23.56h0l3.17-10.37A4,4,0,0,0,96,16.49H20.74L16.33,1.41A2,2,0,0,0,14.45,0H2A2,2,0,0,0,2,3.92H13L17.39,19h0l3.82,13.07h0l3.71,12.69h0l3.91,13.38h0l4,13.59A10,10,0,1,0,46.68,74.6l-.43-.6H70.87a9.94,9.94,0,1,0,7.92-3.93H36.42l-3.08-10.5H85.27a4,4,0,0,0,3.84-2.85l3.65-11.94h0Z" style="fill-rule:evenodd"/></g></g></svg>