<svg id="Layer_1" data-name="Layer 1" xmlns="http://www.w3.org/2000/svg" xmlns:xlink="http://www.w3.org/1999/xlink"
    viewBox="0 0 1125 5478">
    <defs>
        <linearGradient id="linear-gradient" x1="562.01" y1="-57.43" x2="562.01" y2="4549.39"
            gradientUnits="userSpaceOnUse">
            <stop offset="0" stop-color="#f7f7f7" />
            <stop offset="0.03" stop-color="#F7F7F7" />
            <stop offset="0.07" stop-color="#b2b2b2" />
            <stop offset="0.13" stop-color="#878787" />
            <stop offset="0.18" stop-color="#636363" />
            <stop offset="0.24" stop-color="#444" />
            <stop offset="0.3" stop-color="#2b2b2b" />
            <stop offset="0.37" stop-color="#181818" />
            <stop offset="0.45" stop-color="#0a0a0a" />
            <stop offset="0.56" stop-color="#020202" />
            <stop offset="0.75" />
        </linearGradient>
        <clipPath id="clip-path">
            <path id="tri15" d="M293.25,2062.27,562,2505.44,1125,1577H-1Z"
                style="fill:none;stroke:#fff;stroke-miterlimit:10" />
        </clipPath>
    </defs>
    <rect id="whitefooterbg" x="-0.1" y="4458.91" width="1124.22" height="1019.09" style="fill:#fff" />
    <path id="hand1"
        d="M612.27,5225c-4.67,1.42-9,3.59-12.23,7.25s-6.31,7.78-9.4,11.72c-3.5,4.52-7.68,8.11-13.41,9.5a41.8,41.8,0,0,1-13,.72c-5.92-.43-11.86-.69-17.66.62a20.11,20.11,0,0,1-8.39,0,360.5,360.5,0,0,1-59.7-16c-5-1.86-10-3.75-14.47-6.73-2.53-1.72-4.78-3.7-5.68-6.81a7.73,7.73,0,0,1,3.13-9,17.38,17.38,0,0,1,11.13-3,97.59,97.59,0,0,1,20.84,3.53c9.17,2.46,18.23,5.37,27.45,7.62,7.34,1.81,14.87,2.92,22.32,4.32a27.46,27.46,0,0,0,4.14.46c-4.36-1-8.68-2.11-13.05-3-9.65-1.93-19-4.63-28.5-7.45a193.16,193.16,0,0,0-30.52-6.84c-2.19-.29-4.26-1.56-6.33-2.51a60.61,60.61,0,0,1-13.61-7.89,25.48,25.48,0,0,1-4.56-4.72c-2.15-3.06-1.82-6.25.78-8.94a15.22,15.22,0,0,1,12.33-4.74c5.54.27,10.82,1.79,16.09,3.31,13.13,3.89,26.22,7.91,39.35,11.8a153,153,0,0,0,29.81,6l6.1.57,0-.41c-2-.41-4.1-.9-6.17-1.24a327,327,0,0,1-52.79-13.66,84.62,84.62,0,0,1-17.79-8,24.63,24.63,0,0,1-6.81-5.89c-3-4.1-1.82-8.82,2.8-11,3.21-1.47,6.55-1.51,10-1.3,7.07.43,13.78,2.46,20.49,4.53,11.29,3.56,22.53,7,34.12,9.19a204.84,204.84,0,0,0,26.7,3.23c-4-.67-8.09-1.22-12.11-2-6.55-1.34-13.15-2.53-19.56-4.37a40.19,40.19,0,0,1-14.9-8,17.27,17.27,0,0,1-3.27-3.61,7.31,7.31,0,0,1,1.84-10.16,8.18,8.18,0,0,1,1.52-.8,19.47,19.47,0,0,1,8.51-1.25c6.07.17,11.79,2,17.54,3.7,8.53,2.5,17.08,4.92,25.91,6.18a99.35,99.35,0,0,0,19.65.82c8.52-.47,17-1.3,25.5-1.7a64.83,64.83,0,0,1,33,6.66c14.14,7.17,22.4,18.79,24.61,34.37,3.08,21.74-4,39.93-20.49,54.39-9.13,7.95-19.78,13.53-30.93,18.12a138.11,138.11,0,0,1-46.9,9.94,108.38,108.38,0,0,1-23.52-1.52,55.44,55.44,0,0,0-16.81-.62,13.22,13.22,0,0,1-3.77-.12c-3.36-.54-4.85-2.12-5.5-5.47a14.78,14.78,0,0,1,8.41-15.61,49.12,49.12,0,0,1,12.78-3.32c5.8-.86,11.62-.61,17.46-.41a76,76,0,0,0,10-.17c6.33-.6,11.22-3.94,15.18-8.82,1.82-2.25,3.51-4.58,5.25-6.93a48.82,48.82,0,0,1,16-13.95Z"
        style="stroke:#fff;stroke-miterlimit:10" /><text transform="translate(311.4 5065.96)"
        style="font-size:81.27361297607422px;font-family:OpenSans-Bold, Open Sans;font-weight:700">CHERI CHERI</text>
    <g id="flower1">
        <path
            d="M544.55,4865.33c-11.2,3-19.15.62-23.62-7.21s-2.67-16.12,4.44-22.77c-2.41-5.65-5.45-10.75-6.57-16.24-.64-3.11,1.26-7.26,3.13-10.25,4.55-7.24,12-8.95,21.24-6.27,3.3-4.68,5.81-9.62,9.63-13.15,2.39-2.22,6.71-3.09,10.22-3.23,8.86-.35,14.63,5.32,17.72,16.39,12.88-2.34,19.6-.1,23.91,8s2.62,15.31-5.6,23.36c7.5,7.4,11.05,15.7,4.44,25.56-4.63,6.89-11.33,8.65-22.47,6.05-4.31,12.06-9.86,16.93-18.95,16.63C553.3,4881.87,547.5,4876.3,544.55,4865.33Z" />
        <path
            d="M561.87,4910.91c14.92-29.25,42.06-43.57,64.76-34.8-7.33,10.92-14.2,22.27-22.16,32.79-22,29-63,29-85.14.06-4.1-5.35-7.47-11.26-11.25-16.86-3.53-5.25-7.15-10.43-10.7-15.59C518,4865.36,549.68,4881.87,561.87,4910.91Z" />
    </g>
    <rect id="blackbodybg" x="-0.1" width="1124.22" height="4606.82" style="fill:url(#linear-gradient)" />
    <g id="flower3">
        <path
            d="M537.31,4391c4.86-18.87,15.18-28.45,30.7-28.51,15.34,0,25.91,9.6,30.45,28.42,16.79-5.38,31.57-3.22,40.79,13.62,7.23,13.21,4.36,24.49-9.59,39.62,12.39,11.35,17.87,24.6,8.91,40.63-7.27,13-18.53,16.42-40,12.58-5.32,19.07-15.57,28.29-31.12,28-15.13-.27-25.68-10.19-29.41-26.14-9.63-.9-19-.43-27.35-3-5.31-1.65-10.39-7.14-13.5-12.18-8-12.89-4.55-25.93,9-39.86-14.09-16.09-16.62-28.74-8.38-41.88C505.75,4389.52,518.38,4385.92,537.31,4391Z"
            style="fill:#fff" />
        <path
            d="M676.36,4514.25c-9.49,14.74-18.35,28.38-27.09,42.09-12.18,19.09-26.5,35.83-48.43,44.25-42.05,16.15-84,2.81-110.78-35.63-11.26-16.19-21.67-33-32.42-49.41,34.37-18.76,88.33,9.29,109.08,58.82,9.25-22.23,22.46-40.33,43.76-51.36C631.59,4512.08,653.57,4508.41,676.36,4514.25Z"
            style="fill:#fff" />
    </g>
    <g id="flower2">
        <path
            d="M607.47,3909.14c27.4-5.11,42-.26,51.2,17.05s5.6,32.68-12,50c16.12,15.83,23.64,33.62,9.48,54.71-9.9,14.75-24.15,18.46-48.14,12.95-9,25.7-21.07,36.25-40.58,35.59-18.74-.63-31.09-12.51-37.49-36.06-23.89,6.59-41,1.35-50.58-15.46s-5.7-34.42,9.52-48.72c-5.16-12.14-11.68-23.06-14.07-34.82-1.35-6.66,2.73-15.54,6.75-21.93,9.76-15.5,25.7-19.13,48-12.66,8.23-25.49,20.28-36.37,40-36.13C588.52,3873.92,600.76,3885.37,607.47,3909.14Z"
            style="fill:#fff" />
        <path
            d="M427.69,4067.09c51.62-20.55,114.08,12.21,139.45,74.5,11.78-28.14,28.37-50.94,55-64.86s54.46-18.5,84.14-11.15c-16.46,24.56-31.32,49.15-48.56,72-45.85,60.68-134.5,60.76-180.84.75-7.22-9.36-13.54-19.43-20.05-29.33-4.82-7.33-9-15.11-14-22.31C438.19,4079.88,432.78,4073.59,427.69,4067.09Z"
            style="fill:#fff" />
    </g>
    <g id="flower1-2" data-name="flower1">
        <path
            d="M516,3503.62c-32.73,8.88-56,1.79-69-21.08-13.21-23.12-7.81-47.12,13-66.53-7-16.54-15.95-31.43-19.22-47.47-1.85-9.09,3.69-21.22,9.17-29.94,13.29-21.18,35.11-26.17,62.05-18.33,9.66-13.7,17-28.12,28.15-38.44,7-6.48,19.61-9,29.87-9.43,25.88-1,42.74,15.54,51.77,47.88,37.65-6.82,57.3-.28,69.88,23.26s7.66,44.74-16.36,68.28c21.92,21.62,32.28,45.88,13,74.68-13.52,20.16-33.11,25.28-65.68,17.7-12.59,35.23-28.81,49.46-55.38,48.59C541.57,3552,524.61,3535.65,516,3503.62Z"
            style="fill:#fff" />
        <path
            d="M566.61,3636.79c43.59-85.47,122.91-127.3,189.24-101.67-21.43,31.91-41.5,65.07-64.77,95.82-64.18,84.85-184,84.62-248.78.17-12-15.64-21.84-32.9-32.87-49.28-10.32-15.32-20.9-30.47-31.27-45.57C438.25,3503.71,531,3551.93,566.61,3636.79Z"
            style="fill:#fff" />
    </g>
    <g id="cherry-seed-2">
        <path
            d="M597.2,3385.65c-10.24-13.32-21-10.61-21-10.61a54.3,54.3,0,0,1,.58,8.45c-.11,3.72-4.7,3.87-4.7,3.87l-11.56-3c-2.46-.77-.66-4.59-.66-4.59l2.09-4.36c-7.62-.13-19.6,2.31-26.94,11.09s-6.79,20.58-6.41,26.17,4.37,20.35,11,27.08a39.55,39.55,0,0,0,21.59,10.87c6.69,1.18,15.24-1,22.46-4.94a43,43,0,0,0,19.64-26C605.76,3407.69,607.33,3399,597.2,3385.65Zm-48.35,11c-.31,1.17-2.68,6.5.18,17.88,0,0,1.15,3.1-2.55,1.62,0,0-4.84-1.05-7.25-8.6a17.48,17.48,0,0,1,1.67-14.89c.67-.91,1.2-1.19,2.05-1a11.85,11.85,0,0,1,4.38,2.64c.51.54,1.72,1.29,1.43,2.46Z"
            style="fill:#211e1f" />
        <path
            d="M565,3378.24s9-25.3,32.58-32.92a25.18,25.18,0,0,1-.25-4.67,4.74,4.74,0,0,1,1.54-3.09c.79-.72,1.8-1.14,2.43-.46a3.6,3.6,0,0,1,.48,2.05s-1,3.8,2.89,12.68c1.47,3.35,1.25,4.06-.32,4.49-1,.26-3.33-2.42-5.33-6.6,0,0-23.82,6.43-27.87,32.18a2.29,2.29,0,0,1-2.45,1.56,3.62,3.62,0,0,1-4.06-3.12A3.72,3.72,0,0,1,565,3378.24Z"
            style="fill:#211e1f" />
    </g>
    <g id="sky">
        <g style="clip-path:url(#clip-path)">
            <image width="600" height="452" transform="translate(-124.98 1577.04) scale(2.29 2.05)"
                xlink:href="https://chericheri.shop/sky.gif" />
        </g>
        <path id="tri15-2" data-name="tri15" d="M293.25,2062.27,562,2505.44,1125,1577H-1Z"
            style="fill:none;stroke:#fff;stroke-miterlimit:10" />
        <path id="tri13" d="M270.47,2024.81l290.92,480.78,561.94-928.69H-.56Z"
            style="fill:none;stroke:#fff;stroke-miterlimit:10" />
        <path id="tri12" d="M257.92,2032.62l303.47,473,561.94-875.82H-.56Z"
            style="fill:none;stroke:#fff;stroke-miterlimit:10" />
        <path id="tri11" d="M244.5,2041.51l316.89,464.08,561.94-823H-.56Z"
            style="fill:none;stroke:#fff;stroke-miterlimit:10" />
        <path id="tri10" d="M230.14,2051.65l331.25,453.94,561.94-770.09H-.56Z"
            style="fill:none;stroke:#fff;stroke-miterlimit:10" />
        <path id="tri9" d="M214.81,2063.24l346.58,442.35,561.94-717.22H-.56Z"
            style="fill:none;stroke:#fff;stroke-miterlimit:10" />
        <path id="tri8" d="M198.48,2076.54l362.91,429.05,561.94-664.36H-.56Z"
            style="fill:none;stroke:#fff;stroke-miterlimit:10" />
        <path id="tri7" d="M181.15,2091.82l380.24,413.77,561.94-611.49H-.56Z"
            style="fill:none;stroke:#fff;stroke-miterlimit:10" />
        <path id="tri6" d="M162.85,2109.41l398.54,396.18L1123.33,1947H-.56Z"
            style="fill:none;stroke:#fff;stroke-miterlimit:10" />
        <path id="tri5" d="M143.7,2129.66l417.69,375.93,561.94-505.76H-.56Z"
            style="fill:none;stroke:#fff;stroke-miterlimit:10" />
        <path id="tri4" d="M123.85,2153l437.54,352.63,561.94-452.89H-.56Z"
            style="fill:none;stroke:#fff;stroke-miterlimit:10" />
        <path id="tri3" d="M1019.18,2179.7,561.39,2505.59l-561.95-400H1123.33Z"
            style="fill:none;stroke:#fff;stroke-miterlimit:10" />
        <path id="tri2" d="M83.31,2210.25l478.08,295.34,561.94-347.16H-.56Z"
            style="fill:none;stroke:#fff;stroke-miterlimit:10" />
        <path id="tri1" d="M63.57,2244.89l497.82,260.7,561.94-294.29H-.56Z"
            style="fill:none;stroke:#fff;stroke-miterlimit:10" />
    </g>
    <g id="plantinghands">
        <g id="cuppedhands">
            <path id="hand1-2" data-name="hand1"
                d="M393.64,522.88a84.59,84.59,0,0,1-17,32.67c-3.26,3.88-6.51,7.67-9.56,11.65-6.64,8.67-10.28,18.26-8.74,29.18a132.55,132.55,0,0,0,3.78,17c2.7,9.78,5.48,19.49,6.38,29.63a85.19,85.19,0,0,1-.42,22.89,25.65,25.65,0,0,1-22.92,20.52c-5.92.27-9.19-1.61-11.47-7.06a23.46,23.46,0,0,1-1.73-6.31,96.48,96.48,0,0,0-7.84-28.1A188,188,0,0,1,312,605.84a239.38,239.38,0,0,1-2.23-83.13c3.22-20.67,8.32-40.9,18-59.52,17.72-33.64,45.52-53,83.44-56.59,27.18-2.6,50.12,6.64,67.94,27.58a112.69,112.69,0,0,1,24.6,52.91c2.77,14.5,4.8,29.15,7.45,43.7a173.38,173.38,0,0,0,9.35,32.82c5.71,14.38,13.25,27.81,20.93,41.19,5.15,9,10.6,17.92,13.35,28.08a34,34,0,0,1,1.34,14.87,13.13,13.13,0,0,1-.75,2.88,12.65,12.65,0,0,1-16.38,7.22,29.5,29.5,0,0,1-7.41-4.05,69.59,69.59,0,0,1-19.46-21.9c-5.7-10.06-10.39-20.71-15.29-31.22-3-6.45-5.57-13.06-8.33-19.6a354.63,354.63,0,0,0,16.25,43.72c8.44,18.65,18.75,36.23,29.33,53.83,6.2,10.47,12.36,21,15.94,32.72,1.73,5.67,3,11.31,1.85,17.33-1.82,8.68-9.31,12.61-17.44,9.18a42.38,42.38,0,0,1-12.69-9.1A146.43,146.43,0,0,1,501.09,702a568.3,568.3,0,0,1-44.41-83.51c-1.43-3.35-3.09-6.69-4.61-9.91l-.67.23,3.44,10.05a265.35,265.35,0,0,0,22.21,47.84c11.88,20.58,24,41,35.84,61.59,4.7,8.28,9.4,16.56,12.11,25.8a26.45,26.45,0,0,1-3,22.73c-3.48,5.47-8.73,7.32-14.76,4.93a44.42,44.42,0,0,1-9.82-5.77,106.14,106.14,0,0,1-18.82-19.76c-2.43-3.12-5.41-6.1-6.79-9.67a337.13,337.13,0,0,0-23.91-48.71C439.32,683,431,668.28,423.78,652.79c-3.24-7-6.87-13.86-10.32-20.79a49.53,49.53,0,0,0,2.45,6.79c5.38,12,10.31,24.24,16.33,35.9,7.53,14.63,16.12,28.74,24,43.21a168.59,168.59,0,0,1,14.39,33.72,30,30,0,0,1-.5,20,13.38,13.38,0,0,1-14,8.93c-5.61-.25-9.87-3.25-13.78-6.81-6.84-6.33-12.07-14-17.22-21.69a624.83,624.83,0,0,1-51.2-94.2,34.7,34.7,0,0,1-3.43-14.15c-.14-10.31-3-20.23-6.11-30a72.4,72.4,0,0,1-4.06-22.24c0-10.23,4.38-18.73,10.58-26.47,5.4-6.8,11.11-13.63,16-20.61s6.77-15.11,7.27-23.55Z"
                style="fill:#fff;stroke:#000;stroke-miterlimit:10;stroke-width:0.25px" />
            <path id="hand1-3" data-name="hand1"
                d="M732.83,520.06c.5,8.44,2.41,16.57,7.27,23.55s10.57,13.81,16,20.61c6.2,7.74,10.55,16.24,10.58,26.46a72.47,72.47,0,0,1-4.06,22.25c-3.12,9.8-6,19.71-6.11,30a34.7,34.7,0,0,1-3.43,14.15,624.25,624.25,0,0,1-51.2,94.19C696.7,759,691.47,766.67,684.63,773c-3.91,3.57-8.17,6.56-13.78,6.82a13.39,13.39,0,0,1-14-8.93,30.07,30.07,0,0,1-.5-20,168.5,168.5,0,0,1,14.39-33.71c7.86-14.47,16.45-28.58,24-43.22,6-11.65,11-23.89,16.33-35.89a49.66,49.66,0,0,0,2.45-6.8c-3.45,6.94-7.08,13.78-10.32,20.79-7.17,15.5-15.54,30.24-24.12,45.06a337,337,0,0,0-23.91,48.7c-1.38,3.57-4.36,6.56-6.79,9.67a106.14,106.14,0,0,1-18.82,19.76,44.46,44.46,0,0,1-9.82,5.78c-6,2.39-11.28.54-14.76-4.94a26.44,26.44,0,0,1-3-22.73c2.71-9.23,7.41-17.52,12.11-25.79,11.88-20.56,24-41,35.84-61.59a265.13,265.13,0,0,0,22.21-47.85l3.44-10-.67-.23c-1.52,3.23-3.18,6.57-4.61,9.92a568.19,568.19,0,0,1-44.41,83.5A146.83,146.83,0,0,1,605.18,728a42.35,42.35,0,0,1-12.69,9.09c-8.13,3.43-15.62-.49-17.44-9.18-1.18-6,.11-11.65,1.85-17.33,3.58-11.74,9.74-22.24,15.94-32.72,10.58-17.59,20.89-35.17,29.33-53.82a354.17,354.17,0,0,0,16.25-43.73c-2.76,6.54-5.31,13.15-8.33,19.61-4.9,10.5-9.59,21.15-15.29,31.21a69.48,69.48,0,0,1-19.46,21.9,29.18,29.18,0,0,1-7.41,4,12.65,12.65,0,0,1-16.38-7.21,13.07,13.07,0,0,1-.75-2.89,34,34,0,0,1,1.34-14.86c2.75-10.16,8.2-19,13.35-28.09,7.68-13.37,15.22-26.81,20.93-41.19a173.16,173.16,0,0,0,9.35-32.82c2.65-14.54,4.68-29.19,7.45-43.7a112.66,112.66,0,0,1,24.6-52.9c17.83-20.94,40.76-30.18,67.94-27.59,37.92,3.61,65.72,23,83.44,56.59,9.7,18.63,14.8,38.85,18,59.53A239.39,239.39,0,0,1,815,605.12a188,188,0,0,1-12.1,39.06,96.42,96.42,0,0,0-7.84,28.09,23.43,23.43,0,0,1-1.73,6.32c-2.28,5.45-5.56,7.32-11.47,7.06a25.65,25.65,0,0,1-22.92-20.52,85.25,85.25,0,0,1-.42-22.9c.9-10.13,3.68-19.84,6.38-29.62a132.55,132.55,0,0,0,3.78-17c1.54-10.92-2.1-20.51-8.74-29.18-3-4-6.3-7.77-9.56-11.65a84.59,84.59,0,0,1-17-32.67Z"
                style="fill:#fff;stroke:#000;stroke-miterlimit:10;stroke-width:0.25px" />
        </g>
        <g id="cherry-seed-1">
            <path
                d="M557.21,640.65c-17.52,1.92-21,13.06-21,13.06a55.56,55.56,0,0,1,7.89,4.08c3.28,2.12.91,6.32.91,6.32l-9,8.73c-2,1.79-4.48-1.91-4.48-1.91l-2.77-4.25c-4.27,6.76-8.61,18.83-4.74,30.19s14.74,17.31,20,20,20.63,7.18,30.29,4.89a41.53,41.53,0,0,0,21.52-13.43c4.7-5.35,7.42-14.19,7.81-22.83A45,45,0,0,0,591,653.73C581.63,645,574.72,638.86,557.21,640.65Z"
                style="stroke:#fff;stroke-miterlimit:10" />
            <path
                d="M540.72,690c.89.92,4.37,6,16.14,9.59,0,0,3.4.66.06,3.17,0,0-3.58,3.77-11.67,1.81A18.34,18.34,0,0,1,532.82,695c-.46-1.09-.42-1.72.17-2.4a12.3,12.3,0,0,1,4.76-2.49c.76-.16,2.1-.84,3,.06Z"
                style="fill:#fff;stroke:#fff;stroke-miterlimit:10" />
            <path
                d="M532.62,663.91S514,641,520.31,614.52a25.88,25.88,0,0,1-4.52-2.43,5.18,5.18,0,0,1-2-3.21c-.22-1.15,0-2.33,1-2.53a4,4,0,0,1,2.21.71s3,3.09,13.54,4.53c4,.53,4.53,1.15,4,2.87-.31,1.06-4.17,1.74-9.23,1.23,0,0-7.57,26,14.3,44.54a2.52,2.52,0,0,1,.06,3.19,4,4,0,0,1-7,.49Z"
                style="stroke:#fff;stroke-miterlimit:10" />
        </g>
    </g>
</svg>