<svg xmlns="http://www.w3.org/2000/svg" viewBox="0 0 746.1 470"><g id="Layer_2" data-name="Layer 2"><g id="fallingcherries"><rect width="746.1" height="470" style="fill:none;opacity:0.73"/><g id="cherry6"><path d="M406.83,396.83C401.73,392.75,394,395,394,395a12.21,12.21,0,0,1-2.34,3.49c-1.45,1.48-5,.93-5,.93a24.15,24.15,0,0,1-6.36-3.52c-1.14-.91,1.6-1.39,1.6-1.39a21.93,21.93,0,0,0,2.92-.81,78.14,78.14,0,0,1-16.55-8.31,93,93,0,0,1-12.84-10.23c-2.26-2.24-7.86-8.13-11.23-5-2.93,2.86-5.45,10.29-3.74,19.52,1.75,11,9.91,17.66,18.14,24,13.79,5.28,27.05,8.06,40.66.18C408.79,407.6,411.82,401,406.83,396.83Zm-39-4a42,42,0,0,0-10.05-1.34s-1.49.24-1.8-2.38c0,0-.64-3.5,2.73-3.55,2.19-.12,5,1.28,8.17,2.91a2.68,2.68,0,0,1,1.22,1.11,5.13,5.13,0,0,1,.35,2.38c-.07.28.07,1-.69.82Z" style="fill:#231f20;stroke:#010101;stroke-miterlimit:10;stroke-width:0.25px"/><path d="M385.54,395.17c10.47-4,15.45-10.86,21-20.25a18.12,18.12,0,0,1-1.17-2,5.54,5.54,0,0,1-.41-2.18c0-.76.07-1.55.41-1.67a1,1,0,0,1,.73.55s.89,2.14,4.2,4.09c1.25.73,1.36,1.34.86,2.62-.31.8-1.69.79-3.23-.14-4.05,9.16-11.54,15.67-19.76,21.14a3.29,3.29,0,0,1-2.31.17c-1.45-.27-2-1.11-1.37-1.77A2.51,2.51,0,0,1,385.54,395.17Z" style="fill:#231f20;stroke:#010101;stroke-miterlimit:10;stroke-width:0.25px"/></g><g id="cherry5"><path d="M404.21,328.27c-4.49-4.57-11.43-3.1-11.43-3.1a11.69,11.69,0,0,1-2.06,3.33c-1.27,1.41-4.35.79-4.35.79a23.42,23.42,0,0,1-5.52-3.46c-1-.87,1.39-1.43,1.39-1.43a22.23,22.23,0,0,0,2.54-.84c-3.81-1.56-9.19-4.11-14.84-6.94s-10.7-5.1-13.23-6.44-9-4.64-11.76-1.44c-2.32,2.91-3.46,9.31-.9,16.93,2,6.21,8.87,14.8,17.91,19.27,11.08,5.28,24.58,5.51,35.28-.82C405.61,338.58,408.61,332.89,404.21,328.27Zm-34.37-4.51a30.24,30.24,0,0,0-9.27.21s-1.35.47-1.82-1.85a2.86,2.86,0,0,1,2.31-3.7c2.05-.53,4.81.21,7.76,1.3a2.08,2.08,0,0,1,1.17.89,5,5,0,0,1,.38,2.23c-.06.29.08.92-.6.88Z" style="fill:#231f20;stroke:#010101;stroke-miterlimit:10;stroke-width:0.25px"/><path d="M385.43,325A46.56,46.56,0,0,0,405.5,308.3a13.52,13.52,0,0,1-.84-1.89,3.88,3.88,0,0,1-.05-1.87c.12-.61.35-1.22.7-1.23a1,1,0,0,1,.61.6s.49,1.91,3.4,4.27c1.1.88,1.1,1.39.45,2.36-.41.59-1.74.29-3.1-.83a136.29,136.29,0,0,1-18.95,17.57,2.56,2.56,0,0,1-2,.13c-1.25-.28-1.74-1.11-1.19-1.78A2.21,2.21,0,0,1,385.43,325Z" style="fill:#231f20;stroke:#010101;stroke-miterlimit:10;stroke-width:0.25px"/></g><g id="cherry4"><path d="M401.13,264.37a11.13,11.13,0,0,0-9.58-4.69,12.21,12.21,0,0,1-1.81,3.14c-1.09,1.32-3.64.62-3.64.62a25.55,25.55,0,0,1-4.64-3.39c-.85-.83,1.16-1.48,1.16-1.48a23,23,0,0,0,2.15-.88,78.46,78.46,0,0,0-13.17-5.29,58.8,58.8,0,0,0-12.76-1.7c-2.52-.17-9.08-.13-10.92,3.28-1.55,3-1.36,8.16,1.77,13.75,2.48,4.57,9,10.34,16.56,13.22,8.28,3.43,20.93,2.9,28.6-2.11C401.73,274.13,404.63,269.61,401.13,264.37ZM372,259.22a20.88,20.88,0,0,0-8,2.19s-1.12.75-1.76-1.2a3.05,3.05,0,0,1,1.66-3.94c1.76-1,4.3-1.13,7-.71a1.48,1.48,0,0,1,1.08.62,4.68,4.68,0,0,1,.47,2.07c0,.28.12.86-.47.95Z" style="fill:#231f20;stroke:#010101;stroke-miterlimit:10;stroke-width:0.25px"/><path d="M385.33,259.17a169.55,169.55,0,0,0,19-12.55,12.14,12.14,0,0,1-.41-1.85,2.65,2.65,0,0,1,.34-1.52c.24-.45.59-.84.91-.71a1.09,1.09,0,0,1,.43.69s0,1.7,2.23,4.62c.84,1.1.75,1.51,0,2.08-.46.35-1.62-.34-2.66-1.73a157.51,157.51,0,0,0-17.95,13.26,1.82,1.82,0,0,1-1.68.08c-1.06-.28-1.47-1.1-1-1.77A1.82,1.82,0,0,1,385.33,259.17Z" style="fill:#231f20;stroke:#010101;stroke-miterlimit:10;stroke-width:0.25px"/></g><g id="cherry3"><path d="M399,204.78a10,10,0,0,0-8.2-5.72,13,13,0,0,1-1.69,3c-1,1.27-3.2.51-3.2.51a29.8,29.8,0,0,1-4.11-3.35c-.77-.79,1-1.51,1-1.51.8-.34,1.19-.52,1.94-.9a35,35,0,0,0-12.26-4.21c-5-.57-9.46.75-11.74,1.34s-8.08,2.76-9.25,6.3c-.94,3.14-.13,7.43,3.05,11.7,2.53,3.51,8.38,7.48,14.79,9.33,8.84,2.41,18.09.81,23.82-2.93C399,214.18,401.78,210.42,399,204.78Zm-25.64-5.56a16.77,16.77,0,0,0-6.9,3.46s-.91.93-1.64-.77c0,0-1.19-2.07,1.1-4.1a9.1,9.1,0,0,1,6.17-2,1.2,1.2,0,0,1,1,.44,4.52,4.52,0,0,1,.56,2c0,.28.16.83-.36,1Z" style="fill:#231f20;stroke:#010101;stroke-miterlimit:10;stroke-width:0.25px"/><path d="M385.27,198.31a126.12,126.12,0,0,1,18.36-9.83,11,11,0,0,1-.08-1.82,2.2,2.2,0,0,1,.58-1.3c.3-.33.69-.58,1-.37a1.19,1.19,0,0,1,.26.76s-.3,1.54,1.26,4.83c.6,1.24.46,1.57-.3,1.89-.47.19-1.42-.75-2.17-2.31A49.48,49.48,0,0,0,387,200.63a1.5,1.5,0,0,1-1.49.06c-.93-.3-1.3-1.11-.88-1.79A1.68,1.68,0,0,1,385.27,198.31Z" style="fill:#231f20;stroke:#010101;stroke-miterlimit:10;stroke-width:0.25px"/></g><g id="cherry2"><path d="M396,148.68c-1.57-6.07-6.1-6.91-6.1-6.91a15.33,15.33,0,0,1-1.56,2.86c-.85,1.19-2.63.36-2.63.36-1.44-1.28-2.13-1.94-3.45-3.28-.68-.76.83-1.55.83-1.55.68-.37,1-.56,1.68-.94-2.57-1.56-6.79-3.38-11.24-2.81s-7.78,3.54-9.41,5-5.35,6-5.44,9.54a13,13,0,0,0,4.16,9.18c2.25,2.29,6.67,4.22,11.21,4.93,6.24.83,12.48-.72,16.69-3.86C395,157.62,397.51,154.74,396,148.68Zm-20.8-6c-.42.25-2.6,1.16-5,4.93,0,0-.55,1.12-1.37-.27,0,0-1.28-1.6.19-4.2a7.32,7.32,0,0,1,4.71-3.55.88.88,0,0,1,.93.22,4.44,4.44,0,0,1,.71,1.82c0,.28.23.78-.18,1Z" style="fill:#231f20;stroke:#010101;stroke-miterlimit:10;stroke-width:0.25px"/><path d="M385.19,140.71s7.71-6,17.44-6.26a9.9,9.9,0,0,1,.45-1.7,1.85,1.85,0,0,1,.89-1c.37-.19.78-.25.94.06a1.26,1.26,0,0,1,0,.79s-.75,1.27-.35,4.86c.16,1.36,0,1.6-.71,1.6-.42,0-1-1.21-1.2-2.92a22,22,0,0,0-16.05,6.89,1.1,1.1,0,0,1-1.24,0,1.29,1.29,0,0,1-.74-1.79A1.52,1.52,0,0,1,385.19,140.71Z" style="fill:#231f20;stroke:#010101;stroke-miterlimit:10;stroke-width:0.25px"/></g><g id="cherry1"><path d="M393.82,96.39c-.57-6.23-4.5-7.53-4.5-7.53a20.66,20.66,0,0,1-1.5,2.78c-.78,1.15-2.25.28-2.25.28l-3-3.25c-.62-.74.71-1.58.71-1.58l1.53-1c-2.38-1.56-6.63-3.18-10.69-1.88s-6.25,5.12-7.24,7-2.69,7.28-1.94,10.72a14.73,14.73,0,0,0,4.62,7.73c1.87,1.71,5,2.73,8.06,2.93A16,16,0,0,0,389,108.31C392.11,105,394.34,102.62,393.82,96.39Zm-17.41-6.18c-.34.31-2.14,1.51-3.52,5.66,0,0-.25,1.21-1.12,0,0,0-1.32-1.29-.57-4.15a6.53,6.53,0,0,1,3.5-4.35c.39-.15.61-.14.85.08a4.42,4.42,0,0,1,.86,1.7c0,.28.28.75-.05,1.06Z" style="fill:#231f20;stroke:#010101;stroke-miterlimit:10;stroke-width:0.25px"/><path d="M385.15,87.63S393,81.46,402,83.77a9.84,9.84,0,0,1,.85-1.52,1.76,1.76,0,0,1,1.1-.66c.4-.07.8,0,.86.34a1.33,1.33,0,0,1-.26.74s-1.06,1-1.62,4.56c-.2,1.35-.42,1.53-1,1.35-.36-.11-.56-1.42-.36-3.14A15.12,15.12,0,0,0,386.35,90a.87.87,0,0,1-1.08,0,1.35,1.35,0,0,1-.65-1.8A1.29,1.29,0,0,1,385.15,87.63Z" style="fill:#231f20;stroke:#010101;stroke-miterlimit:10;stroke-width:0.25px"/></g></g></g></svg>