<svg xmlns="http://www.w3.org/2000/svg" xmlns:xlink="http://www.w3.org/1999/xlink" viewBox="0 0 750.16 988.21"><defs><clipPath id="clip-path" transform="translate(0 131.54)"><path id="tri16" d="M203.8,332.49,375.08,1.09l373.05,721.8H2Z" style="fill:none"/></clipPath></defs><g id="Layer_2" data-name="Layer 2"><g id="triangles"><g id="pool"><g style="clip-path:url(#clip-path)"><image id="water" width="4000" height="5298" transform="translate(2.03) scale(0.19 0.19)" xlink:href="https://media1.tenor.com/images/607c74e4c59a64da7db742c6d471ed6e/tenor.gif?itemid=14577501"/></g></g><path id="tri16-2" data-name="tri16" d="M203.8,332.49,375.08,1.09l373.05,721.8H2Z" transform="translate(0 131.54)" style="fill:none;stroke:#000;stroke-miterlimit:10"/><path id="tri15" d="M197,328.89,375.08,1.09l373.05,686.7H2Z" transform="translate(0 131.54)" style="fill:none;stroke:#000;stroke-miterlimit:10"/><path id="tri14" d="M189.73,324.84,375.08,1.09,748.13,652.7H2Z" transform="translate(0 131.54)" style="fill:none;stroke:#000;stroke-miterlimit:10"/><path id="tri13" d="M182,320.26,375.08,1.09,748.13,617.6H2Z" transform="translate(0 131.54)" style="fill:none;stroke:#000;stroke-miterlimit:10"/><path id="tri12" d="M173.63,315.07l201.45-314L748.13,582.51H2Z" transform="translate(0 131.54)" style="fill:none;stroke:#000;stroke-miterlimit:10"/><path id="tri11" d="M164.71,309.17,375.08,1.09,748.13,547.41H2Z" transform="translate(0 131.54)" style="fill:none;stroke:#000;stroke-miterlimit:10"/><path id="tri10" d="M155.18,302.44,375.08,1.09,748.13,512.31H2Z" transform="translate(0 131.54)" style="fill:none;stroke:#000;stroke-miterlimit:10"/><path id="tri9" d="M145,294.74,375.08,1.09,748.13,477.22H2Z" transform="translate(0 131.54)" style="fill:none;stroke:#000;stroke-miterlimit:10"/><path id="tri8" d="M134.16,285.91,375.08,1.09l373.05,441H2Z" transform="translate(0 131.54)" style="fill:none;stroke:#000;stroke-miterlimit:10"/><path id="tri7" d="M122.66,275.77,375.08,1.09,748.13,407H2Z" transform="translate(0 131.54)" style="fill:none;stroke:#000;stroke-miterlimit:10"/><path id="tri6" d="M110.51,264.09l264.57-263L748.13,371.93H2Z" transform="translate(0 131.54)" style="fill:none;stroke:#000;stroke-miterlimit:10"/><path id="tri5" d="M97.8,250.65,375.08,1.09,748.13,336.84H2Z" transform="translate(0 131.54)" style="fill:none;stroke:#000;stroke-miterlimit:10"/><path id="tri4" d="M84.62,235.18,375.08,1.09,748.13,301.74H2Z" transform="translate(0 131.54)" style="fill:none;stroke:#000;stroke-miterlimit:10"/><path id="tri3" d="M679,217.43,375.08,1.09,2,266.64h746.1Z" transform="translate(0 131.54)" style="fill:none;stroke:#000;stroke-miterlimit:10"/><path id="tri2" d="M57.71,197.15,375.08,1.09,748.13,231.55H2Z" transform="translate(0 131.54)" style="fill:none;stroke:#000;stroke-miterlimit:10"/><path id="tri1" d="M44.61,174.16,375.08,1.09,748.13,196.45H2Z" transform="translate(0 131.54)" style="fill:none;stroke:#000;stroke-miterlimit:10"/></g></g></svg>