<svg id="Layer_1" data-name="Layer 1" xmlns="http://www.w3.org/2000/svg" viewBox="0 0 414 896"><path d="M224,895.91H177c.35-2.84-.91-5.55-.9-8.26,0-13.39-1.72-26.68-2.2-40-.28-7.52-1.35-15-2.08-22.54-1.13-11.82-3.43-23.54-4.75-35.36-1.74-15.71-4.6-31.25-7.27-46.79-3.34-19.47-7.37-38.85-11.95-58.06-6.26-26.24-12.88-52.42-20.17-78.39-8.38-29.82-17.72-59.37-27.37-88.82-10.41-31.75-20.9-63.47-31.16-95.26C61.53,398.73,54.28,375,46.7,351.28,36.91,320.67,27.37,290,20.37,258.6c-3.24-14.56-6.19-29.2-8.3-44-1.45-10.18-2.8-20.37-4.21-30.54A334.85,334.85,0,0,1,4.31,144C3.87,117.51,3.15,91,6.92,64.63c1.79-12.57,3.5-25.12,6.14-37.53,1.92-9,4-18,6-27H172a69.05,69.05,0,0,0,1.09,7.2c8.25,32.33,15.05,65,21,97.78,3.85,21.09,7.65,42.17,11,63.34,3.19,20.27,6.15,40.55,9,60.86,2.55,17.93,4.45,35.94,6.67,53.91,2,16.11,3.19,32.35,4,48.57.6,11.68,1.46,23.35,2,35,.7,15.51,1.56,31,2,46.54.84,31.39-.15,62.81.84,94.23.32,10-.38,20.17-.71,30.25-.33,9.92-.24,19.84-.69,29.78-.83,18-.81,36-2.22,54-.69,8.73-.31,17.55-1.22,26.24-.57,5.45-.49,10.87-.9,16.29-1.19,15.7-2.69,31.38-3.91,47.09-.82,10.5-.78,21.11-2.28,31.5-.76,5.19-.84,10.45-1.38,15.61-.63,6-2.35,12.2-1,18.61,2.1-.56,2.12-2.23,2.68-3.42,7.83-16.86,15.9-33.63,23.33-50.67,3.49-8,7.72-15.63,10.74-23.87,5.76-15.75,8.63-32.12,12.16-48.41,4.59-21.22,8.43-42.58,12.66-63.87,3.2-16.06,6.12-32.18,9.25-48.25,2.87-14.8,5.88-29.56,8.75-44.35,3.15-16.24,5.93-32.55,9.36-48.73,3.34-15.72,6-31.56,8.48-47.42,2-12.88,4.11-25.76,5.31-38.78,1.11-12,3.35-23.87,4.8-35.84,1.24-10.24,1.59-20.6,3.17-30.78,2.49-16.05,3.07-32.26,4.73-48.38,1.41-13.72,2.13-27.53,3-41.31,1.07-17.14,1.85-34.36,2-51.52.22-36.5,1.15-73-1.62-109.51C333.06,28,332.38,14,330.93.14c26.14,0,52.27.07,78.4-.1,3.61,0,4.68.61,4.67,4.52q-.21,142.85-.11,285.68V497c-2.43-.34-2.35,1.88-3,3.14-10.35,21.09-21.2,41.93-31.22,63.18-13.82,29.3-28.48,58.2-42.71,87.31-11.73,24-23.33,48.07-35,72.1-15.15,31.12-30.32,62.24-44.34,93.89-6.41,14.46-12.84,28.9-18.74,43.58C234.08,872.17,229,884,224,895.91ZM411.64,184.79c-1.4,8.29-2.56,15.23-3.74,22.17-3.34,19.69-6.39,39.44-10.13,59.06-4,20.84-8.12,41.66-13.08,62.28-5.36,22.3-10.72,44.61-16.55,66.81q-12,45.69-26.17,90.7c-6.87,21.7-14.24,43.22-22,64.64-8.21,22.77-16.85,45.36-26.09,67.73-2.09,5.07-4,10.22-6.16,15.25-.68,1.58-1.7,3.58,0,4.23,2,.78,2.24-1.95,3-3.23,1-1.8,1.47-3.92,2.32-5.83,8.18-18.29,16.48-36.53,24.55-54.87C327.8,550.52,337.75,527.2,348,504c8.13-18.49,16.54-36.86,24.69-55.35q15.63-35.46,31-71.05c5.55-12.91,9.21-26.37,9.23-40.56q.06-72.72,0-145.44C412.87,189.82,413.34,188,411.64,184.79Z" style="fill:#19a05c"/><path d="M330.93.14C332.38,14,333.06,28,334.11,41.88c2.77,36.49,1.84,73,1.62,109.51-.1,17.16-.88,34.38-2,51.52-.86,13.78-1.58,27.59-3,41.31-1.66,16.12-2.24,32.33-4.73,48.38-1.58,10.18-1.93,20.54-3.17,30.78-1.45,12-3.69,23.85-4.8,35.84-1.2,13-3.31,25.9-5.31,38.78-2.46,15.86-5.14,31.7-8.48,47.42-3.43,16.18-6.21,32.49-9.36,48.73-2.87,14.79-5.88,29.55-8.75,44.35-3.13,16.07-6.05,32.19-9.25,48.25-4.23,21.29-8.07,42.65-12.66,63.87-3.53,16.29-6.4,32.66-12.16,48.41-3,8.24-7.25,15.87-10.74,23.87-7.43,17-15.5,33.81-23.33,50.67-.56,1.19-.58,2.86-2.68,3.42-1.36-6.41.36-12.61,1-18.61.54-5.16.62-10.42,1.38-15.61,1.5-10.39,1.46-21,2.28-31.5,1.22-15.71,2.72-31.39,3.91-47.09.41-5.42.33-10.84.9-16.29.91-8.69.53-17.51,1.22-26.24,1.41-18,1.39-36,2.22-54,.45-9.94.36-19.86.69-29.78.33-10.08,1-20.27.71-30.25-1-31.42,0-62.84-.84-94.23-.42-15.51-1.28-31-2-46.54-.53-11.68-1.39-23.35-2-35-.83-16.22-2-32.46-4-48.57-2.22-18-4.12-36-6.67-53.91-2.9-20.31-5.86-40.59-9-60.86-3.33-21.17-7.13-42.25-11-63.34-6-32.82-12.79-65.45-21-97.78A69.05,69.05,0,0,1,172,.14Z" style="fill:#e35fa0"/><path d="M19.08.14c-2,9-4.1,18-6,27-2.64,12.41-4.35,25-6.14,37.53C3.15,91,3.87,117.51,4.31,144a334.85,334.85,0,0,0,3.55,40.12c1.41,10.17,2.76,20.36,4.21,30.54,2.11,14.79,5.06,29.43,8.3,44,7,31.39,16.54,62.07,26.33,92.68,7.58,23.67,14.83,47.45,22.46,71.11,10.26,31.79,20.75,63.51,31.16,95.26,9.65,29.45,19,59,27.37,88.82,7.29,26,13.91,52.15,20.17,78.39,4.58,19.21,8.61,38.59,11.95,58.06,2.67,15.54,5.53,31.08,7.27,46.79,1.32,11.82,3.62,23.54,4.75,35.36.73,7.51,1.8,15,2.08,22.54.48,13.36,2.23,26.65,2.2,40,0,2.71,1.25,5.42.9,8.26H119c-.68-5.83-1-11.72-2.08-17.47-3.53-19.29-6.55-38.71-11.17-57.74-7.38-30.4-15.87-60.51-26.58-90-8.43-23.19-17.11-46.28-26.84-68.94Q35.81,623.2,17.08,585.64C11.5,574.38,6.57,562.8.09,552Q.09,278.31,0,4.63C0,.89.82-.25,4.6,0,9.4.42,14.25.14,19.08.14Z" style="fill:#e35fa0"/><path d="M224,895.91c5-11.9,10.09-23.74,14.9-35.7,5.9-14.68,12.33-29.12,18.74-43.58,14-31.65,29.19-62.77,44.34-93.89,11.69-24,23.29-48.09,35-72.1,14.23-29.11,28.89-58,42.71-87.31,10-21.25,20.87-42.09,31.22-63.18.62-1.26.54-3.48,3-3.14V804.93c-2.06,1-1.18,3.2-1.76,4.74-6,15.81-12.72,31.31-19.17,46.92-5.4,13.09-10.7,26.21-16,39.32Z" style="fill:#e35fa0"/><path d="M.09,552c6.48,10.8,11.41,22.38,17,33.64q18.65,37.61,35.29,76.13c9.73,22.66,18.41,45.75,26.84,68.94,10.71,29.48,19.2,59.59,26.58,90,4.62,19,7.64,38.45,11.17,57.74,1.06,5.75,1.4,11.64,2.08,17.47h-70c.09-5.26-1.26-10.34-1.91-15.5-2.45-19.64-6.87-38.89-11.51-58.06Q27.49,788.57,16,755.67c-4.92-14-9.6-28.19-15.9-41.72Z" style="fill:#19a05c"/><path d="M.09,714c6.3,13.53,11,27.67,15.9,41.72q11.5,32.83,19.66,66.68c4.64,19.17,9.06,38.42,11.51,58.06.65,5.16,2,10.24,1.91,15.5-15.16,0-30.32-.11-45.48.09-3,0-3.58-.61-3.58-3.59Q.18,803.18.09,714Z" style="fill:#e35fa0"/><path d="M376.91,895.91c5.35-13.11,10.65-26.23,16-39.32,6.45-15.61,13.18-31.11,19.17-46.92.58-1.54-.3-3.77,1.76-4.74,0,29.16-.05,58.32.09,87.48,0,3-.59,3.65-3.59,3.59C399.24,895.77,388.07,895.91,376.91,895.91Z" style="fill:#19a05c"/><path d="M411.64,184.79c1.7,3.17,1.23,5,1.23,6.8q0,72.72,0,145.44c0,14.19-3.68,27.65-9.23,40.56q-15.3,35.63-31,71.05C364.49,467.13,356.08,485.5,348,504c-10.2,23.21-20.15,46.53-30.36,69.74-8.07,18.34-16.37,36.58-24.55,54.87-.85,1.91-1.29,4-2.32,5.83-.73,1.28-1,4-3,3.23-1.68-.65-.66-2.65,0-4.23,2.17-5,4.07-10.18,6.16-15.25,9.24-22.37,17.88-45,26.09-67.73,7.71-21.42,15.08-42.94,22-64.64q14.25-45,26.17-90.7c5.83-22.2,11.19-44.51,16.55-66.81,5-20.62,9.11-41.44,13.08-62.28,3.74-19.62,6.79-39.37,10.13-59.06C409.08,200,410.24,193.08,411.64,184.79Z" style="fill:#e35fa0"/></svg>