<svg id="Layer_1" data-name="Layer 1" xmlns="http://www.w3.org/2000/svg" xmlns:xlink="http://www.w3.org/1999/xlink"
    viewBox="0 0 1128.28 2028.42">
    <defs>
        <clipPath id="clip-path">
            <polygon points="306.3 1210.31 564.56 710.63 1127.03 1798.95 2.03 1798.95 306.3 1210.31"
                style="fill:none" />
        </clipPath>
    </defs>
    <g id="Layer_2" data-name="Layer 2">
        <g id="artboard_1" data-name="artboard 1">
            <g id="pool">
                <g style="clip-path:url(#clip-path)">
                    <image id="water" width="4000" height="5298" transform="translate(2.03) scale(0.19 0.19)"
                        xlink:href="https://traysimay.github.io/chericheri/water.gif" style="isolation:isolate" />
                </g>
            </g>
            <g id="diamondkeys">
                <path d="M2,1799H1127l-27.35-52.9H29.38Z" style="fill:none;stroke:#000;stroke-miterlimit:10" />
                <path d="M30.78,1693.15,2,1746.05H29.38l27.35-52.9Z"
                    style="fill:none;stroke:#000;stroke-miterlimit:10" />
                <path d="M1099.68,1746.05H1127l-28.74-52.9h-26Z" style="fill:none;stroke:#000;stroke-miterlimit:10" />
                <path d="M56.73,1693.15l-27.35,52.9h1070.3l-27.35-52.9Z"
                    style="fill:none;stroke:#000;stroke-miterlimit:10" />
                <path d="M32.33,1640.24,2,1693.15H30.78l28.75-52.91Z"
                    style="fill:none;stroke:#000;stroke-miterlimit:10" />
                <path d="M1098.29,1693.15H1127l-30.29-52.91h-27.2Z"
                    style="fill:none;stroke:#000;stroke-miterlimit:10" />
                <path d="M84.08,1640.24H59.53l-28.75,52.91H56.73C65.1,1677,74.26,1659.25,84.08,1640.24Z"
                    style="fill:none;stroke:#000;stroke-miterlimit:10" />
                <path d="M1045,1640.24l27.35,52.91h26l-28.75-52.91Z"
                    style="fill:none;stroke:#000;stroke-miterlimit:10" />
                <path d="M56.73,1693.15h1015.6L1045,1640.24H84.08C74.26,1659.25,65.1,1677,56.73,1693.15Z"
                    style="fill:none;stroke:#000;stroke-miterlimit:10" />
                <path d="M34.05,1587.34l-32,52.9h30.3c8.58-15,18.78-32.78,30.3-52.9Z"
                    style="fill:none;stroke:#000;stroke-miterlimit:10" />
                <path d="M1096.74,1640.24H1127l-32-52.9h-28.57Z" style="fill:none;stroke:#000;stroke-miterlimit:10" />
                <path d="M88.28,1587.34H62.63c-11.52,20.12-21.72,37.91-30.3,52.9h27.2Z"
                    style="fill:none;stroke:#000;stroke-miterlimit:10" />
                <path d="M1040.79,1587.34l28.75,52.9h27.2l-30.3-52.9Z"
                    style="fill:none;stroke:#000;stroke-miterlimit:10" />
                <path d="M1045,1640.24h24.56l-28.75-52.9h-23.16Z" style="fill:none;stroke:#000;stroke-miterlimit:10" />
                <path d="M88.28,1587.34l-28.75,52.9H84.08l27.35-52.9Z"
                    style="fill:none;stroke:#000;stroke-miterlimit:10" />
                <path d="M111.43,1587.34l-27.35,52.9H1045l-27.35-52.9Z"
                    style="fill:none;stroke:#000;stroke-miterlimit:10" />
                <path d="M36,1534.44l-34,52.9H34l32-52.9Z" style="fill:none;stroke:#000;stroke-miterlimit:10" />
                <path d="M1095,1587.34h32l-34-52.9h-30Z" style="fill:none;stroke:#000;stroke-miterlimit:10" />
                <path d="M92.92,1534.44H66.08l-32,52.9H62.63Z" style="fill:none;stroke:#000;stroke-miterlimit:10" />
                <path d="M1036.14,1534.44l30.3,52.9H1095l-32-52.9Z"
                    style="fill:none;stroke:#000;stroke-miterlimit:10" />
                <path d="M92.92,1534.44l-30.29,52.9H88.28l28.75-52.9Z"
                    style="fill:none;stroke:#000;stroke-miterlimit:10" />
                <path d="M1040.79,1587.34h25.65l-30.3-52.9H1012Z" style="fill:none;stroke:#000;stroke-miterlimit:10" />
                <path d="M138.78,1534.44H117l-28.75,52.9H111.4C120.21,1570.37,129.35,1552.69,138.78,1534.44Z"
                    style="fill:none;stroke:#000;stroke-miterlimit:10" />
                <path d="M990.28,1534.44l27.35,52.9h23.16l-28.75-52.9Z"
                    style="fill:none;stroke:#000;stroke-miterlimit:10" />
                <path d="M111.43,1587.34h906.2l-27.35-52.9H138.78C129.35,1552.69,120.21,1570.37,111.43,1587.34Z"
                    style="fill:none;stroke:#000;stroke-miterlimit:10" />
                <path d="M1093.08,1534.44h34l-36.13-52.9h-31.77Z" style="fill:none;stroke:#000;stroke-miterlimit:10" />
                <path d="M38.17,1481.54,2,1534.44H36l34-52.9Z" style="fill:none;stroke:#000;stroke-miterlimit:10" />
                <path d="M98.1,1481.54H69.94L36,1534.44H66.08Z" style="fill:none;stroke:#000;stroke-miterlimit:10" />
                <path d="M1031,1481.54l32,52.9h30.09l-33.95-52.9Z" style="fill:none;stroke:#000;stroke-miterlimit:10" />
                <path d="M98.1,1481.54l-32,52.9H92.92l30.3-52.9Z" style="fill:none;stroke:#000;stroke-miterlimit:10" />
                <path d="M1036.14,1534.44H1063l-32-52.9h-25.12Z" style="fill:none;stroke:#000;stroke-miterlimit:10" />
                <path d="M145.77,1481.54H123.22l-30.3,52.9H117C126.26,1517.45,135.86,1499.77,145.77,1481.54Z"
                    style="fill:none;stroke:#000;stroke-miterlimit:10" />
                <path d="M983.29,1481.54l28.75,52.9h24.1l-30.29-52.9Z"
                    style="fill:none;stroke:#000;stroke-miterlimit:10" />
                <path d="M990.28,1534.44H1012l-28.75-52.9H962.93Z" style="fill:none;stroke:#000;stroke-miterlimit:10" />
                <path d="M145.77,1481.54c-9.91,18.23-19.51,35.91-28.74,52.9h21.75q13.32-25.74,27.35-52.9Z"
                    style="fill:none;stroke:#000;stroke-miterlimit:10" />
                <path d="M166.13,1481.54q-14,27.11-27.35,52.9h851.5l-27.35-52.9Z"
                    style="fill:none;stroke:#000;stroke-miterlimit:10" />
                <path d="M40.65,1428.64,2,1481.54H38.17l36.13-52.9Z"
                    style="fill:none;stroke:#000;stroke-miterlimit:10" />
                <path d="M1090.9,1481.54H1127l-38.61-52.9h-33.66Z" style="fill:none;stroke:#000;stroke-miterlimit:10" />
                <path d="M1025.17,1428.64l34,52.9h31.77l-36.14-52.9Z"
                    style="fill:none;stroke:#000;stroke-miterlimit:10" />
                <path d="M103.89,1428.64H74.3l-36.13,52.9H69.94Z" style="fill:none;stroke:#000;stroke-miterlimit:10" />
                <path d="M1031,1481.54h28.16l-34-52.9H999Z" style="fill:none;stroke:#000;stroke-miterlimit:10" />
                <path d="M103.89,1428.64l-33.95,52.9H98.1c10.13-16.74,20.84-34.44,32-52.9Z"
                    style="fill:none;stroke:#000;stroke-miterlimit:10" />
                <path
                    d="M153.52,1428.64h-23.4c-11.18,18.46-21.89,36.16-32,52.9h25.12C133,1464.53,143.08,1446.85,153.52,1428.64Z"
                    style="fill:none;stroke:#000;stroke-miterlimit:10" />
                <path d="M975.55,1428.64l30.3,52.9H1031l-32-52.9Z" style="fill:none;stroke:#000;stroke-miterlimit:10" />
                <path d="M153.52,1428.64c-10.44,18.21-20.56,35.89-30.3,52.9h22.55l28.75-52.9Z"
                    style="fill:none;stroke:#000;stroke-miterlimit:10" />
                <path d="M983.29,1481.54h22.56l-30.3-52.9h-21Z" style="fill:none;stroke:#000;stroke-miterlimit:10" />
                <path d="M935.58,1428.64l27.35,52.9h20.36l-28.75-52.9Z"
                    style="fill:none;stroke:#000;stroke-miterlimit:10" />
                <path d="M193.48,1428.64h-19l-28.75,52.9h20.36Q179.55,1455.61,193.48,1428.64Z"
                    style="fill:none;stroke:#000;stroke-miterlimit:10" />
                <path d="M166.13,1481.54h796.8l-27.35-52.9H193.48Q179.58,1455.56,166.13,1481.54Z"
                    style="fill:none;stroke:#000;stroke-miterlimit:10" />
                <path d="M1088.42,1428.64H1127l-41.46-52.9H1049.8Z"
                    style="fill:none;stroke:#000;stroke-miterlimit:10" />
                <path d="M43.5,1375.74,2,1428.64H40.65l38.61-52.9Z"
                    style="fill:none;stroke:#000;stroke-miterlimit:10" />
                <path d="M1018.63,1375.74l36.13,52.9h33.66l-38.62-52.9Z"
                    style="fill:none;stroke:#000;stroke-miterlimit:10" />
                <path d="M110.44,1375.74H79.26l-38.61,52.9H74.3Z" style="fill:none;stroke:#000;stroke-miterlimit:10" />
                <path d="M110.44,1375.74l-36.14,52.9h29.59l34-52.9Z"
                    style="fill:none;stroke:#000;stroke-miterlimit:10" />
                <path d="M1025.17,1428.64h29.59l-36.13-52.9H991.22Z"
                    style="fill:none;stroke:#000;stroke-miterlimit:10" />
                <path d="M162.14,1375.74H137.85l-34,52.9h26.23Z" style="fill:none;stroke:#000;stroke-miterlimit:10" />
                <path d="M966.93,1375.74l32,52.9h26.22l-34-52.9Z" style="fill:none;stroke:#000;stroke-miterlimit:10" />
                <path d="M975.55,1428.64H999l-32-52.9H945.25Z" style="fill:none;stroke:#000;stroke-miterlimit:10" />
                <path d="M162.14,1375.74l-32,52.9h23.4q14.76-25.8,30.29-52.9Z"
                    style="fill:none;stroke:#000;stroke-miterlimit:10" />
                <path d="M925.8,1375.74l28.74,52.9h21l-30.3-52.9Z" style="fill:none;stroke:#000;stroke-miterlimit:10" />
                <path d="M203.27,1375.74H183.81q-15.5,27-30.29,52.9h21Z"
                    style="fill:none;stroke:#000;stroke-miterlimit:10" />
                <path d="M203.27,1375.74l-28.75,52.9h19l27.35-52.9Z"
                    style="fill:none;stroke:#000;stroke-miterlimit:10" />
                <path d="M935.58,1428.64h19l-28.74-52.9H908.23Z" style="fill:none;stroke:#000;stroke-miterlimit:10" />
                <path d="M220.83,1375.74l-27.35,52.9h742.1l-27.35-52.9Z"
                    style="fill:none;stroke:#000;stroke-miterlimit:10" />
                <path d="M46.79,1322.84,2,1375.74H43.5c11.82-15.09,25.8-32.93,41.46-52.9Z"
                    style="fill:none;stroke:#000;stroke-miterlimit:10" />
                <path d="M1085.57,1375.74H1127l-44.76-52.9h-38.16Z"
                    style="fill:none;stroke:#000;stroke-miterlimit:10" />
                <path d="M1011.19,1322.84l38.61,52.9h35.77l-41.46-52.9Z"
                    style="fill:none;stroke:#000;stroke-miterlimit:10" />
                <path d="M117.88,1322.84H85c-15.66,20-29.64,37.81-41.46,52.9H79.26Z"
                    style="fill:none;stroke:#000;stroke-miterlimit:10" />
                <path d="M117.88,1322.84l-38.62,52.9h31.18l36.13-52.9Z"
                    style="fill:none;stroke:#000;stroke-miterlimit:10" />
                <path d="M1018.63,1375.74h31.17l-38.61-52.9h-28.7Z"
                    style="fill:none;stroke:#000;stroke-miterlimit:10" />
                <path d="M171.8,1322.84H146.57l-36.13,52.9h27.41Z" style="fill:none;stroke:#000;stroke-miterlimit:10" />
                <path d="M957.26,1322.84l34,52.9h27.41l-36.14-52.9Z"
                    style="fill:none;stroke:#000;stroke-miterlimit:10" />
                <path d="M171.8,1322.84l-34,52.9h24.29l32-52.9Z" style="fill:none;stroke:#000;stroke-miterlimit:10" />
                <path d="M966.93,1375.74h24.29l-34-52.9H934.91Z" style="fill:none;stroke:#000;stroke-miterlimit:10" />
                <path d="M214.11,1322.84h-20l-32,52.9h21.67Z" style="fill:none;stroke:#000;stroke-miterlimit:10" />
                <path d="M915,1322.84l30.29,52.9H967l-32-52.9Z" style="fill:none;stroke:#000;stroke-miterlimit:10" />
                <path d="M925.8,1375.74h19.45L915,1322.84h-18Z" style="fill:none;stroke:#000;stroke-miterlimit:10" />
                <path d="M214.11,1322.84l-30.3,52.9h19.46q14.21-26.13,28.75-52.9Z"
                    style="fill:none;stroke:#000;stroke-miterlimit:10" />
                <path d="M248.19,1322.84H232q-14.53,26.72-28.75,52.9h17.56Z"
                    style="fill:none;stroke:#000;stroke-miterlimit:10" />
                <path d="M880.88,1322.84l27.35,52.9H925.8l-28.75-52.9Z"
                    style="fill:none;stroke:#000;stroke-miterlimit:10" />
                <path d="M220.83,1375.74h687.4l-27.35-52.9H248.19Q234.41,1349.47,220.83,1375.74Z"
                    style="fill:none;stroke:#000;stroke-miterlimit:10" />
                <path d="M1082.27,1322.84H1127l-48.63-52.91h-40.89Z"
                    style="fill:none;stroke:#000;stroke-miterlimit:10" />
                <path d="M50.66,1269.93,2,1322.84H46.79l44.77-52.91Z"
                    style="fill:none;stroke:#000;stroke-miterlimit:10" />
                <path d="M126.42,1269.93H91.56l-44.77,52.91H85Z" style="fill:none;stroke:#000;stroke-miterlimit:10" />
                <path d="M1002.65,1269.93l41.46,52.91h38.16l-44.76-52.91Z"
                    style="fill:none;stroke:#000;stroke-miterlimit:10" />
                <path d="M126.42,1269.93,85,1322.84h32.92l38.62-52.91Z"
                    style="fill:none;stroke:#000;stroke-miterlimit:10" />
                <path d="M1011.19,1322.84h32.92l-41.46-52.91H972.57Z"
                    style="fill:none;stroke:#000;stroke-miterlimit:10" />
                <path d="M182.71,1269.93H156.5l-38.62,52.91h28.69Z"
                    style="fill:none;stroke:#000;stroke-miterlimit:10" />
                <path d="M946.36,1269.93l36.13,52.91h28.7l-38.62-52.91Z"
                    style="fill:none;stroke:#000;stroke-miterlimit:10" />
                <path d="M957.26,1322.84h25.23l-36.13-52.91H923.31Z"
                    style="fill:none;stroke:#000;stroke-miterlimit:10" />
                <path d="M182.71,1269.93l-36.14,52.91H171.8l34-52.91Z"
                    style="fill:none;stroke:#000;stroke-miterlimit:10" />
                <path d="M226.18,1269.93H205.76l-34,52.91h22.36Z" style="fill:none;stroke:#000;stroke-miterlimit:10" />
                <path d="M902.89,1269.93l32,52.91h22.35l-34-52.91Z"
                    style="fill:none;stroke:#000;stroke-miterlimit:10" />
                <path d="M915,1322.84h20l-32-52.91H884.66Z" style="fill:none;stroke:#000;stroke-miterlimit:10" />
                <path d="M226.18,1269.93l-32,52.91h20l30.29-52.91Z"
                    style="fill:none;stroke:#000;stroke-miterlimit:10" />
                <path d="M868.3,1269.93l28.75,52.91h18l-30.3-52.91Z"
                    style="fill:none;stroke:#000;stroke-miterlimit:10" />
                <path d="M260.77,1269.93H244.4l-30.29,52.91H232Z" style="fill:none;stroke:#000;stroke-miterlimit:10" />
                <path d="M260.77,1269.93q-14.46,26.6-28.75,52.91h16.17l27.35-52.91Z"
                    style="fill:none;stroke:#000;stroke-miterlimit:10" />
                <path d="M880.88,1322.84h16.17l-28.75-52.91H853.53Z"
                    style="fill:none;stroke:#000;stroke-miterlimit:10" />
                <path d="M275.54,1269.93q-13.73,26.52-27.35,52.91H880.88l-27.35-52.91Z"
                    style="fill:none;stroke:#000;stroke-miterlimit:10" />
                <path d="M55.27,1217,2,1269.93H50.66L99.3,1217Z" style="fill:none;stroke:#000;stroke-miterlimit:10" />
                <path d="M1078.4,1269.93H1127L1073.8,1217h-44Z" style="fill:none;stroke:#000;stroke-miterlimit:10" />
                <path d="M992.75,1217l44.76,52.9h40.89l-48.63-52.9Z"
                    style="fill:none;stroke:#000;stroke-miterlimit:10" />
                <path d="M136.32,1217h-37l-48.64,52.9h40.9Z" style="fill:none;stroke:#000;stroke-miterlimit:10" />
                <path d="M136.32,1217l-44.76,52.9h34.86c13.21-16.84,27.09-34.56,41.46-52.9Z"
                    style="fill:none;stroke:#000;stroke-miterlimit:10" />
                <path d="M1002.65,1269.93h34.86L992.75,1217H961.18Z"
                    style="fill:none;stroke:#000;stroke-miterlimit:10" />
                <path d="M934,1217l38.62,52.9h30.08L961.18,1217Z" style="fill:none;stroke:#000;stroke-miterlimit:10" />
                <path d="M195.11,1217H167.88c-14.37,18.34-28.25,36.06-41.46,52.9H156.5Z"
                    style="fill:none;stroke:#000;stroke-miterlimit:10" />
                <path d="M195.11,1217l-38.61,52.9h26.21l36.13-52.9Z"
                    style="fill:none;stroke:#000;stroke-miterlimit:10" />
                <path d="M946.36,1269.93h26.21L934,1217H910.22Z" style="fill:none;stroke:#000;stroke-miterlimit:10" />
                <path d="M889.36,1217l33.95,52.9h23.05L910.22,1217Z"
                    style="fill:none;stroke:#000;stroke-miterlimit:10" />
                <path d="M239.71,1217H218.84l-36.13,52.9h23Z" style="fill:none;stroke:#000;stroke-miterlimit:10" />
                <path d="M239.71,1217l-34,52.9h20.42l32-52.9Z" style="fill:none;stroke:#000;stroke-miterlimit:10" />
                <path d="M902.89,1269.93h20.42L889.36,1217h-18.5Z" style="fill:none;stroke:#000;stroke-miterlimit:10" />
                <path d="M274.7,1217H258.2l-32,52.9h18.2Z" style="fill:none;stroke:#000;stroke-miterlimit:10" />
                <path d="M854.37,1217l30.29,52.9h18.23l-32-52.9Z" style="fill:none;stroke:#000;stroke-miterlimit:10" />
                <path d="M274.7,1217l-30.3,52.9h16.37l28.74-52.9Z" style="fill:none;stroke:#000;stroke-miterlimit:10" />
                <path d="M868.3,1269.93h16.36L854.37,1217H839.55Z" style="fill:none;stroke:#000;stroke-miterlimit:10" />
                <path d="M826.18,1217l27.35,52.9H868.3L839.55,1217Z"
                    style="fill:none;stroke:#000;stroke-miterlimit:10" />
                <path d="M302.89,1217H289.51q-14.37,26.48-28.74,52.9h14.77Q289.2,1243.48,302.89,1217Z"
                    style="fill:none;stroke:#000;stroke-miterlimit:10" />
                <path d="M275.54,1269.93h578L826.18,1217H302.89Z" style="fill:none;stroke:#000;stroke-miterlimit:10" />
                <path d="M1073.8,1217H1127l-58.8-52.9h-47.66Z" style="fill:none;stroke:#000;stroke-miterlimit:10" />
                <path d="M60.83,1164.13,2,1217H55.27l53.23-52.9Z" style="fill:none;stroke:#000;stroke-miterlimit:10" />
                <path d="M981.14,1164.13l48.63,52.9h44l-53.23-52.9Z"
                    style="fill:none;stroke:#000;stroke-miterlimit:10" />
                <path d="M147.93,1164.13H108.5L55.27,1217h44Z" style="fill:none;stroke:#000;stroke-miterlimit:10" />
                <path d="M992.75,1217h37l-48.63-52.9H948Z" style="fill:none;stroke:#000;stroke-miterlimit:10" />
                <path d="M147.93,1164.13,99.3,1217h37l44.76-52.9Z" style="fill:none;stroke:#000;stroke-miterlimit:10" />
                <path d="M209.34,1164.13H181.08L136.32,1217h31.56C181.33,1199.88,195.2,1182.18,209.34,1164.13Z"
                    style="fill:none;stroke:#000;stroke-miterlimit:10" />
                <path d="M919.72,1164.13l41.46,52.9h31.57L948,1164.13Z"
                    style="fill:none;stroke:#000;stroke-miterlimit:10" />
                <path d="M934,1217h27.23l-41.46-52.9H895.34Z" style="fill:none;stroke:#000;stroke-miterlimit:10" />
                <path d="M233.73,1164.13H209.34c-14.14,18-28,35.75-41.46,52.9h27.23L233,1165.18Z"
                    style="fill:none;stroke:#000;stroke-miterlimit:10" />
                <path d="M874.09,1164.13l36.13,52.9H934l-38.61-52.9Z"
                    style="fill:none;stroke:#000;stroke-miterlimit:10" />
                <path d="M247.33,1175.33l7.65-11.2H233.73l-.77,1L195.11,1217h23.73Z"
                    style="fill:none;stroke:#000;stroke-miterlimit:10" />
                <path d="M889.36,1217h20.86l-36.13-52.9H855.4Z" style="fill:none;stroke:#000;stroke-miterlimit:10" />
                <path d="M273.66,1164.13H255l-7.65,11.2L218.84,1217h20.87l21.06-32.81Z"
                    style="fill:none;stroke:#000;stroke-miterlimit:10" />
                <path d="M838.84,1164.13l32,52.9h18.5l-34-52.9Z" style="fill:none;stroke:#000;stroke-miterlimit:10" />
                <path
                    d="M273.33,1192l16.89-27.91H273.66l-12.89,20.09q-10.56,16.47-21.06,32.81H258.2Q265.76,1204.57,273.33,1192Z"
                    style="fill:none;stroke:#000;stroke-miterlimit:10" />
                <path d="M854.37,1217h16.49l-32-52.9H824.07Z" style="fill:none;stroke:#000;stroke-miterlimit:10" />
                <path d="M305,1164.13H290.22L273.33,1192l-15.13,25h16.5l10.36-18Z"
                    style="fill:none;stroke:#000;stroke-miterlimit:10" />
                <path d="M810.8,1164.13l28.75,52.9h14.82l-30.3-52.9Z"
                    style="fill:none;stroke:#000;stroke-miterlimit:10" />
                <path d="M296,1205.06l22.24-40.93H305L285.06,1199l-10.36,18h14.81Z"
                    style="fill:none;stroke:#000;stroke-miterlimit:10" />
                <path d="M839.55,1217l-28.75-52.9h-12l27.35,52.9Z" style="fill:none;stroke:#000;stroke-miterlimit:10" />
                <path d="M289.51,1217h13.38q1.68-3.27,3.38-6.54l24-46.36h-12l-22.27,41Z"
                    style="fill:none;stroke:#000;stroke-miterlimit:10" />
                <path d="M302.89,1217H826.18l-27.35-52.9H330.24l-24,46.36C305.13,1212.66,304,1214.84,302.89,1217Z"
                    style="fill:none;stroke:#000;stroke-miterlimit:10" />
                <path d="M67.7,1111.23,2,1164.13H60.8l58.8-52.9Z" style="fill:none;stroke:#000;stroke-miterlimit:10" />
                <path d="M1068.23,1164.13H1127l-65.66-52.9h-51.93Z"
                    style="fill:none;stroke:#000;stroke-miterlimit:10" />
                <path d="M161.74,1111.23H119.63l-58.8,52.9H108.5Z" style="fill:none;stroke:#000;stroke-miterlimit:10" />
                <path d="M967.33,1111.23l53.24,52.9h47.66l-58.79-52.9Z"
                    style="fill:none;stroke:#000;stroke-miterlimit:10" />
                <path d="M981.14,1164.13h39.43l-53.24-52.9H932.51Z"
                    style="fill:none;stroke:#000;stroke-miterlimit:10" />
                <path d="M196.56,1111.23H161.74l-53.24,52.9h39.43l36-39.15Z"
                    style="fill:none;stroke:#000;stroke-miterlimit:10" />
                <path d="M903.23,1111.23l44.76,52.9h33.15l-48.63-52.9Z"
                    style="fill:none;stroke:#000;stroke-miterlimit:10" />
                <path d="M201.27,1140.27l24.57-29H196.56L183.92,1125l-36,39.15h33.15Z"
                    style="fill:none;stroke:#000;stroke-miterlimit:10" />
                <path d="M919.72,1164.13H948l-44.76-52.9h-25Z" style="fill:none;stroke:#000;stroke-miterlimit:10" />
                <path d="M250.81,1111.23h-25l-24.57,29-20.19,23.86h28.26l8.27-10.55Z"
                    style="fill:none;stroke:#000;stroke-miterlimit:10" />
                <path d="M856.72,1111.23l38.62,52.9h24.38l-41.46-52.9Z"
                    style="fill:none;stroke:#000;stroke-miterlimit:10" />
                <path d="M272.34,1111.23H250.81l-33.2,42.35-8.27,10.55h24.39Z"
                    style="fill:none;stroke:#000;stroke-miterlimit:10" />
                <path d="M272.34,1111.23l-38.61,52.9H255l36.13-52.9Z"
                    style="fill:none;stroke:#000;stroke-miterlimit:10" />
                <path d="M874.09,1164.13h21.25l-38.62-52.9H838Z" style="fill:none;stroke:#000;stroke-miterlimit:10" />
                <path d="M307.62,1111.23H291.11L255,1164.13h18.68Z"
                    style="fill:none;stroke:#000;stroke-miterlimit:10" />
                <path d="M821.45,1111.23l33.95,52.9h18.69L838,1111.23Z"
                    style="fill:none;stroke:#000;stroke-miterlimit:10" />
                <path d="M290.22,1164.13l32-52.9h-14.6l-34,52.9Z" style="fill:none;stroke:#000;stroke-miterlimit:10" />
                <path d="M855.4,1164.13l-33.95-52.9H806.82l32,52.9Z"
                    style="fill:none;stroke:#000;stroke-miterlimit:10" />
                <path d="M838.84,1164.13l-32-52.9H793.77l30.3,52.9Z"
                    style="fill:none;stroke:#000;stroke-miterlimit:10" />
                <path d="M305,1164.13q15.22-26.6,30.29-52.9H322.24l-32,52.9Z"
                    style="fill:none;stroke:#000;stroke-miterlimit:10" />
                <path d="M318.26,1164.13q14.49-26.64,28.75-52.9H335.29q-15,26.26-30.29,52.9Z"
                    style="fill:none;stroke:#000;stroke-miterlimit:10" />
                <path d="M824.07,1164.13l-30.3-52.9H782.06l28.74,52.9Z"
                    style="fill:none;stroke:#000;stroke-miterlimit:10" />
                <path d="M330.24,1164.13l27.35-52.9H347l-28.75,52.9Z"
                    style="fill:none;stroke:#000;stroke-miterlimit:10" />
                <path d="M810.8,1164.13l-28.74-52.9H771.48l27.35,52.9Z"
                    style="fill:none;stroke:#000;stroke-miterlimit:10" />
                <path d="M798.83,1164.13l-27.35-52.9H357.59l-27.35,52.9Z"
                    style="fill:none;stroke:#000;stroke-miterlimit:10" />
                <path d="M1061.37,1111.23H1127l-74.34-52.9h-57Z" style="fill:none;stroke:#000;stroke-miterlimit:10" />
                <path d="M133.36,1058.33h-57L2,1111.23H67.7l58.86-47.43Z"
                    style="fill:none;stroke:#000;stroke-miterlimit:10" />
                <path d="M950.64,1058.33l58.8,52.9h51.93l-65.66-52.9Z"
                    style="fill:none;stroke:#000;stroke-miterlimit:10" />
                <path d="M146.43,1087.12l32-28.79H133.36l-6.8,5.47L67.7,1111.23h51.93Z"
                    style="fill:none;stroke:#000;stroke-miterlimit:10" />
                <path d="M967.33,1111.23h42.11l-58.8-52.9H914.1Z" style="fill:none;stroke:#000;stroke-miterlimit:10" />
                <path d="M215,1058.33H178.43l-32,28.79-26.8,24.11h42.11l3.87-3.85Z"
                    style="fill:none;stroke:#000;stroke-miterlimit:10" />
                <path d="M245.19,1058.33H215l-49.36,49.05-3.87,3.85h34.82Z"
                    style="fill:none;stroke:#000;stroke-miterlimit:10" />
                <path d="M883.88,1058.33l48.63,52.9h34.82l-53.23-52.9Z"
                    style="fill:none;stroke:#000;stroke-miterlimit:10" />
                <path d="M245.19,1058.33l-48.63,52.9h29.28l44.76-52.9Z"
                    style="fill:none;stroke:#000;stroke-miterlimit:10" />
                <path d="M903.23,1111.23h29.28l-48.63-52.9H858.46Z"
                    style="fill:none;stroke:#000;stroke-miterlimit:10" />
                <path d="M292.27,1058.33H270.6l-44.76,52.9h25Z" style="fill:none;stroke:#000;stroke-miterlimit:10" />
                <path d="M836.8,1058.33l41.46,52.9h25l-44.77-52.9Z"
                    style="fill:none;stroke:#000;stroke-miterlimit:10" />
                <path d="M272.34,1111.23l38.62-52.9H292.27l-41.46,52.9Z"
                    style="fill:none;stroke:#000;stroke-miterlimit:10" />
                <path d="M878.26,1111.23l-41.46-52.9H818.11l38.61,52.9Z"
                    style="fill:none;stroke:#000;stroke-miterlimit:10" />
                <path d="M856.72,1111.23l-38.61-52.9H801.82l36.13,52.9Z"
                    style="fill:none;stroke:#000;stroke-miterlimit:10" />
                <path d="M291.11,1111.23l36.14-52.9H311l-38.62,52.9Z"
                    style="fill:none;stroke:#000;stroke-miterlimit:10" />
                <path d="M838,1111.23l-36.13-52.9H787.49l34,52.9Z" style="fill:none;stroke:#000;stroke-miterlimit:10" />
                <path d="M307.62,1111.23l33.95-52.9H327.25l-36.14,52.9Z"
                    style="fill:none;stroke:#000;stroke-miterlimit:10" />
                <path d="M821.45,1111.23l-34-52.9H774.8l32,52.9Z" style="fill:none;stroke:#000;stroke-miterlimit:10" />
                <path d="M322.24,1111.23l32-52.9H341.57l-33.95,52.9Z"
                    style="fill:none;stroke:#000;stroke-miterlimit:10" />
                <path d="M335.29,1111.23q15.33-26.74,30.3-52.9H354.26l-32,52.9Z"
                    style="fill:none;stroke:#000;stroke-miterlimit:10" />
                <path d="M806.82,1111.23l-32-52.9H763.48l30.29,52.9Z"
                    style="fill:none;stroke:#000;stroke-miterlimit:10" />
                <path d="M347,1111.23l28.75-52.9H365.59q-15,26.1-30.3,52.9Z"
                    style="fill:none;stroke:#000;stroke-miterlimit:10" />
                <path d="M793.77,1111.23l-30.29-52.9H753.31l28.75,52.9Z"
                    style="fill:none;stroke:#000;stroke-miterlimit:10" />
                <path d="M782.06,1111.23l-28.75-52.9h-9.18l27.35,52.9Z"
                    style="fill:none;stroke:#000;stroke-miterlimit:10" />
                <path d="M357.59,1111.23l27.35-52.9h-9.18L347,1111.23Z"
                    style="fill:none;stroke:#000;stroke-miterlimit:10" />
                <path d="M771.48,1111.23l-27.35-52.9H384.94q-13.47,26-27.35,52.9Z"
                    style="fill:none;stroke:#000;stroke-miterlimit:10" />
                <path d="M1041.37,1005.43h-63l44.44,31.62,29.9,21.28H1127Z"
                    style="fill:none;stroke:#000;stroke-miterlimit:10" />
                <path d="M978.35,1005.43h-48.3l65.66,52.9h57l-29.9-21.28Z"
                    style="fill:none;stroke:#000;stroke-miterlimit:10" />
                <path d="M950.64,1058.33h45.07l-65.66-52.9H891.84Z"
                    style="fill:none;stroke:#000;stroke-miterlimit:10" />
                <path d="M860.86,1005.43l53.24,52.9h36.54l-58.8-52.9Z"
                    style="fill:none;stroke:#000;stroke-miterlimit:10" />
                <path d="M914.1,1058.33l-53.24-52.9H835.24l48.64,52.9Z"
                    style="fill:none;stroke:#000;stroke-miterlimit:10" />
                <path d="M883.88,1058.33l-48.64-52.9H813.7l44.76,52.9Z"
                    style="fill:none;stroke:#000;stroke-miterlimit:10" />
                <path d="M858.46,1058.33l-44.76-52.9H795.34l41.46,52.9Z"
                    style="fill:none;stroke:#000;stroke-miterlimit:10" />
                <path d="M311,1058.33l38.62-52.9H333.73l-41.46,52.9Z"
                    style="fill:none;stroke:#000;stroke-miterlimit:10" />
                <path d="M836.8,1058.33l-41.46-52.9H779.49l38.62,52.9Z"
                    style="fill:none;stroke:#000;stroke-miterlimit:10" />
                <path d="M818.11,1058.33l-38.62-52.9H765.68l36.14,52.9Z"
                    style="fill:none;stroke:#000;stroke-miterlimit:10" />
                <path d="M801.82,1058.33l-36.14-52.9H753.54l34,52.9Z"
                    style="fill:none;stroke:#000;stroke-miterlimit:10" />
                <path d="M787.49,1058.33l-34-52.9H742.78l32,52.9Z" style="fill:none;stroke:#000;stroke-miterlimit:10" />
                <path d="M774.8,1058.33l-32-52.9h-9.6l30.3,52.9Z" style="fill:none;stroke:#000;stroke-miterlimit:10" />
                <path d="M763.48,1058.33l-30.3-52.9h-8.62l28.75,52.9Z"
                    style="fill:none;stroke:#000;stroke-miterlimit:10" />
                <path d="M753.31,1058.33l-28.75-52.9h-7.78l27.35,52.9Z"
                    style="fill:none;stroke:#000;stroke-miterlimit:10" />
                <path d="M744.13,1058.33l-27.35-52.9H412.29q-13.38,25.86-27.35,52.9Z"
                    style="fill:none;stroke:#000;stroke-miterlimit:10" />
                <path d="M1127,1005.43,564.53,711l476.84,294.48Z" style="fill:none;stroke:#000;stroke-miterlimit:10" />
                <path d="M66.23,971.82,2,1005.43H87.69L564.53,711Z"
                    style="fill:none;stroke:#000;stroke-miterlimit:10" />
                <path d="M564.53,711,87.69,1005.43h63Z" style="fill:none;stroke:#000;stroke-miterlimit:10" />
                <path d="M1041.37,1005.43,564.53,711l413.82,294.48Z"
                    style="fill:none;stroke:#000;stroke-miterlimit:10" />
                <path d="M199,1005.43,564.53,711,150.71,1005.43Z" style="fill:none;stroke:#000;stroke-miterlimit:10" />
                <path d="M978.35,1005.43,564.53,711l365.52,294.48Z"
                    style="fill:none;stroke:#000;stroke-miterlimit:10" />
                <path d="M237.23,1005.43,564.53,711,199,1005.43Z" style="fill:none;stroke:#000;stroke-miterlimit:10" />
                <path d="M930.05,1005.43,564.53,711l327.31,294.48Z"
                    style="fill:none;stroke:#000;stroke-miterlimit:10" />
                <path d="M891.84,1005.43,564.53,711l296.33,294.48Z"
                    style="fill:none;stroke:#000;stroke-miterlimit:10" />
                <path d="M268.2,1005.43,564.53,711l-327.3,294.48Z" style="fill:none;stroke:#000;stroke-miterlimit:10" />
                <path d="M860.86,1005.43,564.53,711l270.71,294.48Z"
                    style="fill:none;stroke:#000;stroke-miterlimit:10" />
                <path d="M293.82,1005.43,564.53,711,268.2,1005.43Z"
                    style="fill:none;stroke:#000;stroke-miterlimit:10" />
                <path d="M315.36,1005.43,564.53,711,293.82,1005.43Z"
                    style="fill:none;stroke:#000;stroke-miterlimit:10" />
                <path d="M835.24,1005.43,564.53,711,813.7,1005.43Z"
                    style="fill:none;stroke:#000;stroke-miterlimit:10" />
                <path d="M813.7,1005.43,564.53,711l230.81,294.48Z" style="fill:none;stroke:#000;stroke-miterlimit:10" />
                <path d="M333.73,1005.43,564.53,711,315.36,1005.43Z"
                    style="fill:none;stroke:#000;stroke-miterlimit:10" />
                <path d="M795.34,1005.43,564.53,711l215,294.48Z" style="fill:none;stroke:#000;stroke-miterlimit:10" />
                <path d="M349.58,1005.43,564.53,711l-230.8,294.48Z"
                    style="fill:none;stroke:#000;stroke-miterlimit:10" />
                <path d="M363.38,1005.43,564.53,711,349.58,1005.43Z"
                    style="fill:none;stroke:#000;stroke-miterlimit:10" />
                <path d="M779.49,1005.43,564.53,711l201.15,294.48Z"
                    style="fill:none;stroke:#000;stroke-miterlimit:10" />
                <path d="M375.53,1005.43,564.53,711,363.38,1005.43Z"
                    style="fill:none;stroke:#000;stroke-miterlimit:10" />
                <path d="M765.68,1005.43,564.53,711l189,294.48Z" style="fill:none;stroke:#000;stroke-miterlimit:10" />
                <path d="M386.29,1005.43,564.53,711l-189,294.48Z" style="fill:none;stroke:#000;stroke-miterlimit:10" />
                <path d="M753.54,1005.43,564.53,711l178.25,294.48Z"
                    style="fill:none;stroke:#000;stroke-miterlimit:10" />
                <path d="M395.89,1005.43,564.53,711,386.29,1005.43Z"
                    style="fill:none;stroke:#000;stroke-miterlimit:10" />
                <path d="M742.78,1005.43,564.53,711l168.65,294.48Z"
                    style="fill:none;stroke:#000;stroke-miterlimit:10" />
                <path d="M404.51,1005.43,564.53,711,395.89,1005.43Z"
                    style="fill:none;stroke:#000;stroke-miterlimit:10" />
                <path d="M733.18,1005.43,564.53,711l160,294.48Z" style="fill:none;stroke:#000;stroke-miterlimit:10" />
                <path d="M412.29,1005.43C498.8,838.08,564.53,711,564.53,711l-160,294.48Z"
                    style="fill:none;stroke:#000;stroke-miterlimit:10" />
                <path d="M724.56,1005.43,564.53,711l152.25,294.48Z"
                    style="fill:none;stroke:#000;stroke-miterlimit:10" />
                <path d="M716.78,1005.43,564.53,711S498.8,838.08,412.29,1005.43Z"
                    style="fill:none;stroke:#000;stroke-miterlimit:10" />
                <path id="key1" d="M87.69,1005.43l-1.7,1.05L2,1058.33H76.37l74.34-52.9Z"
                    style="fill:none;stroke:#000;stroke-miterlimit:10" />
                <path id="key2" d="M199,1005.43H150.71l-74.34,52.9h57Z"
                    style="fill:none;stroke:#000;stroke-miterlimit:10" />
                <path id="key3" d="M199,1005.43l-65.66,52.9h45.07l58.8-52.9Z"
                    style="fill:none;stroke:#000;stroke-miterlimit:10" />
                <path id="key4" d="M268.2,1005.43h-31l-58.8,52.9H215Z"
                    style="fill:none;stroke:#000;stroke-miterlimit:10" />
                <path id="key5" d="M245.19,1058.33l48.63-52.9H268.2l-53.2,52.9Z"
                    style="fill:none;stroke:#000;stroke-miterlimit:10" />
                <path id="key6" d="M270.6,1058.33l44.76-52.9H293.82l-48.63,52.9Z"
                    style="fill:none;stroke:#000;stroke-miterlimit:10" />
                <path id="key7" d="M292.27,1058.33l41.46-52.9H315.36l-44.76,52.9Z"
                    style="fill:none;stroke:#000;stroke-miterlimit:10" />
                <path id="key10" d="M327.25,1058.33l36.13-52.9h-13.8L311,1058.33Z"
                    style="fill:none;stroke:#000;stroke-miterlimit:10" />
                <path id="key11" d="M341.57,1058.33l34-52.9H363.38l-36.13,52.9Z"
                    style="fill:none;stroke:#000;stroke-miterlimit:10" />
                <path id="key12" d="M354.26,1058.33l32-52.9H375.53l-34,52.9Z"
                    style="fill:none;stroke:#000;stroke-miterlimit:10" />
                <path id="key13" d="M365.59,1058.33l30.3-52.9h-9.6l-32,52.9Z"
                    style="fill:none;stroke:#000;stroke-miterlimit:10" />
                <path id="key14" d="M375.76,1058.33l28.75-52.9h-8.62l-30.3,52.9Z"
                    style="fill:none;stroke:#000;stroke-miterlimit:10" />
                <path id="key15" d="M384.94,1058.33q13.95-27,27.35-52.9h-7.78l-28.75,52.9Z"
                    style="fill:none;stroke:#000;stroke-miterlimit:10" />
            </g>
            <rect x="2.01" width="1125.05" height="708.72" style="fill:none" />
            <g id="cherry6">
                <path
                    d="M615.52,598.34c-7.7-6.16-19.43-2.76-19.43-2.76a18.17,18.17,0,0,1-3.52,5.26c-2.19,2.24-7.57,1.42-7.57,1.42a36.63,36.63,0,0,1-9.61-5.33c-1.71-1.38,2.43-2.1,2.43-2.1a33.51,33.51,0,0,0,4.41-1.23,102,102,0,0,1-25-12.56,152.63,152.63,0,0,1-19.35-15.5c-3.42-3.4-11.85-12.35-17-7.7-7.4,8-6.2,19.7-5.75,29.52a54.93,54.93,0,0,0,27.37,36.35c19.89,8.69,41.79,12,61.48.29C610.17,619.1,626.72,607.44,615.52,598.34Zm-58.88-6.07a64.42,64.42,0,0,0-15.2-2s-2.24.37-2.7-3.6c0,0-1-5.3,4.14-5.35,3.31-.18,7.57,1.94,12.33,4.41a4,4,0,0,1,1.85,1.68,8,8,0,0,1,.52,3.59c-.11.43.09,1.45-1.06,1.25Z"
                    style="fill:#221f1f;stroke:#000;stroke-miterlimit:10;stroke-width:0.25px" />
                <path
                    d="M583.37,595.84c15.2-6.17,24.11-16.11,31.63-30.61a29.05,29.05,0,0,1-1.76-3,8.08,8.08,0,0,1-.64-3.29c0-1.14.1-2.34.61-2.52a1.5,1.5,0,0,1,1.11.82s1.36,3.22,6.37,6.17c1.9,1.09,2,2,1.31,4-.47,1.2-2.56,1.2-4.88-.2-5.8,14-17.44,23.79-29.78,32a4.87,4.87,0,0,1-3.48.25c-2.19-.4-3-1.67-2.08-2.68A4,4,0,0,1,583.37,595.84Z"
                    style="fill:#221f1f;stroke:#000;stroke-miterlimit:10;stroke-width:0.25px" />
            </g>
            <g id="cherry5">
                <path
                    d="M611.58,495c-6.8-6.91-17.27-4.68-17.27-4.68a17.88,17.88,0,0,1-3.12,5c-1.91,2.13-6.57,1.2-6.57,1.2a35.28,35.28,0,0,1-8.34-5.24c-1.49-1.31,2.11-2.16,2.11-2.16a32.41,32.41,0,0,0,3.83-1.27c-5.75-2.35-13.87-6.21-22.39-10.48s-16.15-7.74-20-9.77-13.64-7.07-17.76-2.24c-3.53,4.4-5.27,14.07-1.43,25.62,4.8,13.78,15.12,21.79,27.05,29.19,17.19,6.21,36.92,9.38,53.35-1.23C608.15,514.74,620.36,503.64,611.58,495Zm-51.92-6.81a45.65,45.65,0,0,0-14,.3s-2,.7-2.75-2.8c0,0-1.31-4.58,3.5-5.6,3.11-.78,7.28.34,11.73,2a3.13,3.13,0,0,1,1.75,1.34,7.53,7.53,0,0,1,.58,3.38c-.09.43.12,1.38-.92,1.33Z"
                    style="fill:#221f1f;stroke:#000;stroke-miterlimit:10;stroke-width:0.25px" />
                <path
                    d="M583.21,490.09a72.47,72.47,0,0,0,30.24-25.31,22.75,22.75,0,0,1-1.28-2.85,5.61,5.61,0,0,1-.07-2.82c.17-.93.51-1.85,1-1.87a1.56,1.56,0,0,1,.92.91s.74,2.89,5.15,6.43c1.67,1.33,1.68,2.11.69,3.57-.61.9-2.62.45-4.68-1.24-7.67,10.66-18,18.88-28.57,26.57a3.82,3.82,0,0,1-3,.19c-1.9-.41-2.63-1.67-1.8-2.68A3.17,3.17,0,0,1,583.21,490.09Z"
                    style="fill:#221f1f;stroke:#000;stroke-miterlimit:10;stroke-width:0.25px" />
            </g>
            <g id="cherry4">
                <path
                    d="M606.93,398.62c-5.42-7.88-14.49-7.08-14.49-7.08a18.56,18.56,0,0,1-2.73,4.75c-1.64,2-5.5.93-5.5.93a38.28,38.28,0,0,1-7-5.13c-1.27-1.25,1.76-2.24,1.76-2.24a34.07,34.07,0,0,0,3.25-1.33,118.68,118.68,0,0,0-19.88-8c-7.94-2.2-15.45-2.35-19.27-2.6s-13.73-.23-16.52,4.93c-2.34,4.61-2.08,12.34,2.64,20.8,5.48,10,15.33,15.08,25,20,15.08,3.68,29.28,5.28,43.25-3.18C607.85,413.38,612.23,406.54,606.93,398.62Zm-44-7.78a31.55,31.55,0,0,0-12.1,3.3s-1.7,1.13-2.66-1.81c0,0-1.64-3.7,2.51-6,2.67-1.57,6.51-1.71,10.53-1.07a2.25,2.25,0,0,1,1.63.94,7.24,7.24,0,0,1,.71,3.13c-.06.42.18,1.31-.72,1.43Z"
                    style="fill:#221f1f;stroke:#000;stroke-miterlimit:10;stroke-width:0.25px" />
                <path
                    d="M583.05,390.77a190.32,190.32,0,0,0,28.71-19,18.79,18.79,0,0,1-.63-2.79,4,4,0,0,1,.51-2.31c.36-.67.88-1.26,1.37-1.07a1.65,1.65,0,0,1,.65,1s0,2.56,3.39,7c1.28,1.66,1.14,2.28,0,3.14-.7.53-2.46-.51-4-2.61-9,6.67-18.41,12.89-27.08,20.06a2.76,2.76,0,0,1-2.53.13c-1.59-.44-2.22-1.68-1.51-2.69A2.69,2.69,0,0,1,583.05,390.77Z"
                    style="fill:#221f1f;stroke:#000;stroke-miterlimit:10;stroke-width:0.25px" />
            </g>
            <g id="cherry3">
                <path
                    d="M603.74,308.77a15,15,0,0,0-12.4-8.63,19.44,19.44,0,0,1-2.55,4.56c-1.48,1.91-4.83.76-4.83.76a45.92,45.92,0,0,1-6.21-5c-1.16-1.21,1.54-2.29,1.54-2.29,1.19-.52,1.78-.79,2.92-1.37-4.43-2.35-11-5.51-18.51-6.37s-14.29,1.14-17.74,2-12.22,4.17-14,9.52c-1.44,4.73-.21,11.22,4.58,17.69,3.82,5.31,12.67,11.32,22.36,14.13,12,3.27,25.37,2.25,36-4.44C603.74,323,607.91,317.3,603.74,308.77ZM565,300.37c-.8.24-4.83.85-10.43,5.22,0,0-1.39,1.4-2.48-1.17,0,0-1.8-3.13,1.67-6.18,2.22-2.09,5.65-3,9.33-3a1.74,1.74,0,0,1,1.53.67,6.86,6.86,0,0,1,.84,3c0,.43.24,1.26-.55,1.5Z"
                    style="fill:#221f1f;stroke:#000;stroke-miterlimit:10;stroke-width:0.25px" />
                <path
                    d="M583,299c9-5.24,18.08-10.77,27.71-14.87a16.72,16.72,0,0,1-.13-2.74,3.26,3.26,0,0,1,.87-2c.46-.51,1-.89,1.47-.57a1.84,1.84,0,0,1,.39,1.15s-.44,2.33,1.93,7.3c.9,1.87.69,2.37-.46,2.85-.7.29-2.15-1.13-3.28-3.49-9.42,4-18.28,9-26,15.85a2.22,2.22,0,0,1-2.24.08c-1.41-.45-2-1.68-1.34-2.7A2.4,2.4,0,0,1,583,299Z"
                    style="fill:#221f1f;stroke:#000;stroke-miterlimit:10;stroke-width:0.25px" />
            </g>
            <g id="cherry2">
                <path
                    d="M599.17,224.19C596.8,215,590,213.74,590,213.74a23.86,23.86,0,0,1-2.35,4.33c-1.29,1.8-4,.55-4,.55-2.18-1.94-3.22-2.94-5.22-5-1-1.14,1.26-2.35,1.26-2.35,1-.55,1.53-.83,2.53-1.41-3.88-2.36-10.24-5.11-17-4.26S553.48,211,551,213.16s-8.09,9-8.23,14.42c0,4.74,2.05,9.7,6.28,13.88,3.4,3.47,10.08,6.4,16.94,7.46,9.43,1.26,18.87-1.08,25.23-5.83C597.73,237.7,601.46,233.36,599.17,224.19Zm-31.43-9.08c-.63.39-3.92,1.76-7.6,7.45,0,0-.84,1.7-2.07-.4,0,0-1.93-2.41.28-6.36a11.12,11.12,0,0,1,7.13-5.35,1.29,1.29,0,0,1,1.39.33,6.69,6.69,0,0,1,1.08,2.75c0,.42.34,1.18-.28,1.57Z"
                    style="fill:#221f1f;stroke:#000;stroke-miterlimit:10;stroke-width:0.25px" />
                <path
                    d="M582.85,212.14c7.86-5.24,16.79-9,26.33-9.47a16.46,16.46,0,0,1,.67-2.57,2.87,2.87,0,0,1,1.35-1.46c.56-.27,1.18-.37,1.42.1a2,2,0,0,1,0,1.19s-1.12,1.93-.51,7.36c.24,2.05,0,2.42-1.07,2.42-.64,0-1.47-1.83-1.82-4.42A33.23,33.23,0,0,0,585,215.7a1.61,1.61,0,0,1-1.87,0,2,2,0,0,1-1.18-2.57.69.69,0,0,1,0-.13A2.2,2.2,0,0,1,582.85,212.14Z"
                    style="fill:#221f1f;stroke:#000;stroke-miterlimit:10;stroke-width:0.25px" />
            </g>
            <g id="cherry1">
                <path
                    d="M595.85,145.35C595,136,589.07,134,589.07,134a30.08,30.08,0,0,1-2.26,4.18c-1.17,1.73-3.4.42-3.4.42l-4.58-4.9c-.94-1.1,1.07-2.38,1.07-2.38l2.3-1.44c-3.57-2.35-10-4.8-16.12-2.84s-9.41,7.72-10.92,10.48-4,11-2.92,16.17a22.25,22.25,0,0,0,7,11.65c2.81,2.58,7.52,4.12,12.14,4.41a24,24,0,0,0,17.14-6.43C593.28,158.38,596.63,154.74,595.85,145.35ZM569.6,136c-.51.46-3.23,2.28-5.3,8.54,0,0-.39,1.81-1.7,0,0,0-2-1.95-.85-6.26a9.8,9.8,0,0,1,5.27-6.56c.6-.24.93-.21,1.29.11a6.71,6.71,0,0,1,1.29,2.57c.07.42.42,1.14-.07,1.6Z"
                    style="fill:#221f1f;stroke:#000;stroke-miterlimit:10;stroke-width:0.25px" />
                <path
                    d="M582.78,132.13s11.87-9.3,25.37-5.81a13.53,13.53,0,0,1,1.28-2.29,2.65,2.65,0,0,1,1.66-1c.59-.11,1.2,0,1.29.51a2.07,2.07,0,0,1-.39,1.12s-1.61,1.5-2.44,6.88c-.31,2-.63,2.3-1.51,2-.54-.16-.85-2.15-.54-4.73,0,0-13.23-4.12-22.91,6.88a1.28,1.28,0,0,1-1.63,0,2,2,0,0,1-.18-3.59Z"
                    style="fill:#221f1f;stroke:#000;stroke-miterlimit:10;stroke-width:0.25px" />
            </g>
        </g>
    </g>
</svg>